<svg xmlns="http://www.w3.org/2000/svg" viewBox="0 0 750 500"><g id="freepik--background-complete--inject-6"><g><g><g><g><path d="M673.73,339.78h-180.75c-3.23,0-5.86-2.63-5.86-5.86V70.65c0-3.23,2.63-5.86,5.86-5.86h180.75c3.23,0,5.86,2.63,5.86,5.86V333.92c0,3.23-2.63,5.86-5.86,5.86ZM492.99,65.04c-3.09,0-5.61,2.52-5.61,5.61V333.92c0,3.09,2.52,5.61,5.61,5.61h180.75c3.09,0,5.61-2.52,5.61-5.61V70.65c0-3.09-2.52-5.61-5.61-5.61h-180.75Z" style="fill:#e0e0e0;"></path><path d="M465.31,339.78h-180.75c-3.23,0-5.86-2.63-5.86-5.86V70.65c0-3.23,2.63-5.86,5.86-5.86h180.75c3.23,0,5.86,2.63,5.86,5.86V333.92c0,3.23-2.63,5.86-5.86,5.86ZM284.56,65.04c-3.09,0-5.61,2.52-5.61,5.61V333.92c0,3.09,2.52,5.61,5.61,5.61h180.75c3.09,0,5.61-2.52,5.61-5.61V70.65c0-3.09-2.52-5.61-5.61-5.61h-180.75Z" style="fill:#e0e0e0;"></path></g><path d="M257.01,339.78H76.27c-3.23,0-5.86-2.63-5.86-5.86V70.65c0-3.23,2.63-5.86,5.86-5.86h180.75c3.23,0,5.86,2.63,5.86,5.86V333.92c0,3.23-2.63,5.86-5.86,5.86ZM76.27,65.04c-3.09,0-5.61,2.52-5.61,5.61V333.92c0,3.09,2.52,5.61,5.61,5.61h180.75c3.09,0,5.61-2.52,5.61-5.61V70.65c0-3.09-2.52-5.61-5.61-5.61H76.27Z" style="fill:#e0e0e0;"></path></g><rect y="400.85" width="750" height=".12" style="fill:#e0e0e0;"></rect></g><g><rect x="653.63" y="430.23" width="55.73" height=".42" style="fill:#ebebeb;"></rect><rect x="495.04" y="434.79" width="14.63" height=".42" style="fill:#ebebeb;"></rect><rect x="40.64" y="417.43" width="72.67" height=".42" style="fill:#ebebeb;"></rect><rect x="128.3" y="417.43" width="10.66" height=".42" style="fill:#ebebeb;"></rect><rect x="173.59" y="424.54" width="157.61" height=".42" style="fill:#ebebeb;"></rect></g></g><g id="freepik--freepik--background-complete--inject-481--inject-6"><g><polygon points="426.95 270.68 426.95 225.79 399.16 225.79 399.16 236.03 380.63 236.03 380.63 123.9 345.01 123.9 345.01 168.03 334.32 168.03 334.32 145.99 306.53 145.99 306.53 253.47 267.34 253.47 267.34 215.5 242.77 215.5 242.77 133.17 212.44 133.17 212.44 188.06 183.94 188.06 183.94 306.3 161.85 306.3 161.85 248.72 139.05 248.72 139.05 211.67 114.82 211.67 114.82 183.23 87.8 197.48 87.8 273.59 59.29 273.59 59.29 257.89 21.22 257.89 21.22 399.24 464.41 399.45 464.41 270.68 426.95 270.68" style="fill:#f0f0f0;"></polygon><rect x="219.38" y="142.89" width="8.87" height="10.17" style="fill:#fafafa;"></rect><rect x="219.38" y="159.94" width="8.87" height="10.17" style="fill:#fafafa;"></rect><rect x="219.38" y="177" width="8.87" height="10.17" style="fill:#fafafa;"></rect><rect x="219.38" y="194.05" width="8.87" height="10.17" style="fill:#fafafa;"></rect><rect x="219.38" y="211.1" width="8.87" height="10.17" style="fill:#fafafa;"></rect><rect x="219.38" y="228.16" width="8.87" height="10.17" style="fill:#fafafa;"></rect><rect x="219.38" y="245.21" width="8.87" height="10.17" style="fill:#fafafa;"></rect><rect x="219.38" y="262.27" width="8.87" height="10.17" style="fill:#fafafa;"></rect><rect x="352.68" y="129.27" width="8.87" height="10.17" style="fill:#fafafa;"></rect><rect x="352.68" y="146.32" width="8.87" height="10.17" style="fill:#fafafa;"></rect><rect x="352.68" y="163.38" width="8.87" height="10.17" style="fill:#fafafa;"></rect><rect x="352.68" y="180.43" width="8.87" height="10.17" style="fill:#fafafa;"></rect><rect x="352.68" y="197.49" width="8.87" height="10.17" style="fill:#fafafa;"></rect><rect x="352.68" y="214.54" width="8.87" height="10.17" style="fill:#fafafa;"></rect><rect x="352.68" y="231.6" width="8.87" height="10.17" style="fill:#fafafa;"></rect><rect x="352.68" y="248.65" width="8.87" height="10.17" style="fill:#fafafa;"></rect></g><g><path d="M189.05,399.32V235.77h-35.3v163.53l35.3,.02Z" style="fill:#e0e0e0;"></path><rect x="156.42" y="240.96" width="4.28" height="8.83" style="fill:#fafafa;"></rect><rect x="164.98" y="240.96" width="4.28" height="8.83" style="fill:#fafafa;"></rect><rect x="173.54" y="240.96" width="4.28" height="8.83" style="fill:#fafafa;"></rect><rect x="182.1" y="240.96" width="4.28" height="8.83" style="fill:#fafafa;"></rect><rect x="156.42" y="255.77" width="4.28" height="8.83" style="fill:#fafafa;"></rect><rect x="164.98" y="255.77" width="4.28" height="8.83" style="fill:#fafafa;"></rect><rect x="173.54" y="255.77" width="4.28" height="8.83" style="fill:#fafafa;"></rect><rect x="182.1" y="255.77" width="4.28" height="8.83" style="fill:#fafafa;"></rect><rect x="156.42" y="270.57" width="4.28" height="8.83" style="fill:#fafafa;"></rect><rect x="164.98" y="270.57" width="4.28" height="8.83" style="fill:#fafafa;"></rect><rect x="173.54" y="270.57" width="4.28" height="8.83" style="fill:#fafafa;"></rect><rect x="182.1" y="270.57" width="4.28" height="8.83" style="fill:#fafafa;"></rect><rect x="156.42" y="285.37" width="4.28" height="8.83" style="fill:#fafafa;"></rect><rect x="164.98" y="285.37" width="4.28" height="8.83" style="fill:#fafafa;"></rect><rect x="173.54" y="285.37" width="4.28" height="8.83" style="fill:#fafafa;"></rect><rect x="182.1" y="285.37" width="4.28" height="8.83" style="fill:#fafafa;"></rect><rect x="156.42" y="300.17" width="4.28" height="8.83" style="fill:#fafafa;"></rect><rect x="164.98" y="300.17" width="4.28" height="8.83" style="fill:#fafafa;"></rect><rect x="173.54" y="300.17" width="4.28" height="8.83" style="fill:#fafafa;"></rect><rect x="182.1" y="300.17" width="4.28" height="8.83" style="fill:#fafafa;"></rect><rect x="156.42" y="314.96" width="4.28" height="8.83" style="fill:#fafafa;"></rect><rect x="164.98" y="314.96" width="4.28" height="8.83" style="fill:#fafafa;"></rect><rect x="173.54" y="314.96" width="4.28" height="8.83" style="fill:#fafafa;"></rect><rect x="182.1" y="314.96" width="4.28" height="8.83" style="fill:#fafafa;"></rect><rect x="156.42" y="329.76" width="4.28" height="8.83" style="fill:#fafafa;"></rect><rect x="164.98" y="329.76" width="4.28" height="8.83" style="fill:#fafafa;"></rect><rect x="173.54" y="329.76" width="4.28" height="8.83" style="fill:#fafafa;"></rect><rect x="182.1" y="329.76" width="4.28" height="8.83" style="fill:#fafafa;"></rect><rect x="156.42" y="344.57" width="4.28" height="8.83" style="fill:#fafafa;"></rect><rect x="164.98" y="344.57" width="4.28" height="8.83" style="fill:#fafafa;"></rect><rect x="173.54" y="344.57" width="4.28" height="8.83" style="fill:#fafafa;"></rect><rect x="182.1" y="344.57" width="4.28" height="8.83" style="fill:#fafafa;"></rect></g><g><path d="M311.73,399.38V216.9h-73.2v182.53s72.64,.02,73.2-.05Z" style="fill:#e6e6e6;"></path><rect x="244.03" y="222.93" width="8.87" height="10.17" style="fill:#e0e0e0;"></rect><rect x="261.79" y="222.93" width="8.87" height="10.17" style="fill:#e0e0e0;"></rect><rect x="279.54" y="222.93" width="8.87" height="10.17" style="fill:#e0e0e0;"></rect><rect x="297.3" y="222.93" width="8.87" height="10.17" style="fill:#e0e0e0;"></rect><rect x="244.03" y="239.99" width="8.87" height="10.17" style="fill:#e0e0e0;"></rect><rect x="261.79" y="239.99" width="8.87" height="10.17" style="fill:#e0e0e0;"></rect><rect x="279.54" y="239.99" width="8.87" height="10.17" style="fill:#e0e0e0;"></rect><rect x="297.3" y="239.99" width="8.87" height="10.17" style="fill:#e0e0e0;"></rect><rect x="244.03" y="257.04" width="8.87" height="10.17" style="fill:#e0e0e0;"></rect><rect x="261.79" y="257.04" width="8.87" height="10.17" style="fill:#e0e0e0;"></rect><rect x="279.54" y="257.04" width="8.87" height="10.17" style="fill:#e0e0e0;"></rect><rect x="297.3" y="257.04" width="8.87" height="10.17" style="fill:#e0e0e0;"></rect><rect x="244.03" y="274.09" width="8.87" height="10.17" style="fill:#e0e0e0;"></rect><rect x="261.79" y="274.09" width="8.87" height="10.17" style="fill:#e0e0e0;"></rect><rect x="279.54" y="274.09" width="8.87" height="10.17" style="fill:#e0e0e0;"></rect><rect x="297.3" y="274.09" width="8.87" height="10.17" style="fill:#e0e0e0;"></rect><rect x="244.03" y="291.16" width="8.87" height="10.17" style="fill:#e0e0e0;"></rect><rect x="261.79" y="291.16" width="8.87" height="10.17" style="fill:#e0e0e0;"></rect><rect x="279.54" y="291.16" width="8.87" height="10.17" style="fill:#e0e0e0;"></rect><rect x="297.3" y="291.16" width="8.87" height="10.17" style="fill:#e0e0e0;"></rect><rect x="244.03" y="308.21" width="8.87" height="10.17" style="fill:#e0e0e0;"></rect><rect x="261.79" y="308.21" width="8.87" height="10.17" style="fill:#e0e0e0;"></rect><rect x="279.54" y="308.21" width="8.87" height="10.17" style="fill:#e0e0e0;"></rect><rect x="297.3" y="308.21" width="8.87" height="10.17" style="fill:#e0e0e0;"></rect><rect x="244.03" y="325.27" width="8.87" height="10.17" style="fill:#e0e0e0;"></rect><rect x="261.79" y="325.27" width="8.87" height="10.17" style="fill:#e0e0e0;"></rect><rect x="279.54" y="325.27" width="8.87" height="10.17" style="fill:#e0e0e0;"></rect><rect x="297.3" y="325.27" width="8.87" height="10.17" style="fill:#e0e0e0;"></rect><rect x="244.03" y="342.32" width="8.87" height="10.17" style="fill:#e0e0e0;"></rect><rect x="261.79" y="342.32" width="8.87" height="10.17" style="fill:#e0e0e0;"></rect><rect x="279.54" y="342.32" width="8.87" height="10.17" style="fill:#e0e0e0;"></rect><rect x="297.3" y="342.32" width="8.87" height="10.17" style="fill:#e0e0e0;"></rect></g><g><path d="M140.91,399.3V204.14h-30.28v195.31c9.58-.24,30.28-.16,30.28-.16Z" style="fill:#e6e6e6;"></path><rect x="115.11" y="207.75" width="8.87" height="10.17" style="fill:#fafafa;"></rect><rect x="115.11" y="224.8" width="8.87" height="10.17" style="fill:#fafafa;"></rect><rect x="115.11" y="241.86" width="8.87" height="10.17" style="fill:#fafafa;"></rect><rect x="115.11" y="258.91" width="8.87" height="10.17" style="fill:#fafafa;"></rect><rect x="115.11" y="275.96" width="8.87" height="10.17" style="fill:#fafafa;"></rect><rect x="115.11" y="293.03" width="8.87" height="10.17" style="fill:#fafafa;"></rect><rect x="115.11" y="310.08" width="8.87" height="10.17" style="fill:#fafafa;"></rect><rect x="115.11" y="327.14" width="8.87" height="10.17" style="fill:#fafafa;"></rect><rect x="126.98" y="207.75" width="8.87" height="10.17" style="fill:#fafafa;"></rect><rect x="126.98" y="224.8" width="8.87" height="10.17" style="fill:#fafafa;"></rect><rect x="126.98" y="241.86" width="8.87" height="10.17" style="fill:#fafafa;"></rect><rect x="126.98" y="258.91" width="8.87" height="10.17" style="fill:#fafafa;"></rect><rect x="126.98" y="275.96" width="8.87" height="10.17" style="fill:#fafafa;"></rect><rect x="126.98" y="293.03" width="8.87" height="10.17" style="fill:#fafafa;"></rect><rect x="126.98" y="310.08" width="8.87" height="10.17" style="fill:#fafafa;"></rect><rect x="126.98" y="327.14" width="8.87" height="10.17" style="fill:#fafafa;"></rect></g><g><rect x="377.51" y="207.62" width="53.45" height="191.83" style="fill:#e6e6e6;"></rect><rect x="385.42" y="215.55" width="15.66" height="10.17" style="fill:#fafafa;"></rect><rect x="385.42" y="232.61" width="15.66" height="10.17" style="fill:#fafafa;"></rect><rect x="385.42" y="249.66" width="15.66" height="10.17" style="fill:#fafafa;"></rect><rect x="385.42" y="266.72" width="15.66" height="10.17" style="fill:#fafafa;"></rect><rect x="385.42" y="283.77" width="15.66" height="10.17" style="fill:#fafafa;"></rect><rect x="385.42" y="300.82" width="15.66" height="10.17" style="fill:#fafafa;"></rect><rect x="385.42" y="317.88" width="15.66" height="10.17" style="fill:#fafafa;"></rect><rect x="385.42" y="334.93" width="15.66" height="10.17" style="fill:#fafafa;"></rect><rect x="406.37" y="215.55" width="15.66" height="10.17" style="fill:#fafafa;"></rect><rect x="406.37" y="232.61" width="15.66" height="10.17" style="fill:#fafafa;"></rect><rect x="406.37" y="249.66" width="15.66" height="10.17" style="fill:#fafafa;"></rect><rect x="406.37" y="266.72" width="15.66" height="10.17" style="fill:#fafafa;"></rect><rect x="406.37" y="283.77" width="15.66" height="10.17" style="fill:#fafafa;"></rect><rect x="406.37" y="300.82" width="15.66" height="10.17" style="fill:#fafafa;"></rect><rect x="406.37" y="317.88" width="15.66" height="10.17" style="fill:#fafafa;"></rect><rect x="406.37" y="334.93" width="15.66" height="10.17" style="fill:#fafafa;"></rect></g><g><path d="M342.54,399.39v-142.35h-23.31v142.34h23.31Z" style="fill:#e0e0e0;"></path><rect x="321" y="261.55" width="2.83" height="7.58" style="fill:#fafafa;"></rect><rect x="326.65" y="261.55" width="2.83" height="7.58" style="fill:#fafafa;"></rect><rect x="332.3" y="261.55" width="2.83" height="7.58" style="fill:#fafafa;"></rect><rect x="337.95" y="261.55" width="2.83" height="7.58" style="fill:#fafafa;"></rect><rect x="321" y="274.26" width="2.83" height="7.58" style="fill:#fafafa;"></rect><rect x="326.65" y="274.26" width="2.83" height="7.58" style="fill:#fafafa;"></rect><rect x="332.3" y="274.26" width="2.83" height="7.58" style="fill:#fafafa;"></rect><rect x="337.95" y="274.26" width="2.83" height="7.58" style="fill:#fafafa;"></rect><rect x="321" y="286.98" width="2.83" height="7.58" style="fill:#fafafa;"></rect><rect x="326.65" y="286.98" width="2.83" height="7.58" style="fill:#fafafa;"></rect><rect x="332.3" y="286.98" width="2.83" height="7.58" style="fill:#fafafa;"></rect><rect x="337.95" y="286.98" width="2.83" height="7.58" style="fill:#fafafa;"></rect><rect x="321" y="299.69" width="2.83" height="7.58" style="fill:#fafafa;"></rect><rect x="326.65" y="299.69" width="2.83" height="7.58" style="fill:#fafafa;"></rect><rect x="332.3" y="299.69" width="2.83" height="7.58" style="fill:#fafafa;"></rect><rect x="337.95" y="299.69" width="2.83" height="7.58" style="fill:#fafafa;"></rect><rect x="321" y="312.42" width="2.83" height="7.58" style="fill:#fafafa;"></rect><rect x="326.65" y="312.42" width="2.83" height="7.58" style="fill:#fafafa;"></rect><rect x="332.3" y="312.42" width="2.83" height="7.58" style="fill:#fafafa;"></rect><rect x="337.95" y="312.42" width="2.83" height="7.58" style="fill:#fafafa;"></rect><rect x="321" y="325.13" width="2.83" height="7.58" style="fill:#fafafa;"></rect><rect x="326.65" y="325.13" width="2.83" height="7.58" style="fill:#fafafa;"></rect><rect x="332.3" y="325.13" width="2.83" height="7.58" style="fill:#fafafa;"></rect><rect x="337.95" y="325.13" width="2.83" height="7.58" style="fill:#fafafa;"></rect><rect x="321" y="337.85" width="2.83" height="7.58" style="fill:#fafafa;"></rect><rect x="326.65" y="337.85" width="2.83" height="7.58" style="fill:#fafafa;"></rect><rect x="332.3" y="337.85" width="2.83" height="7.58" style="fill:#fafafa;"></rect><rect x="337.95" y="337.85" width="2.83" height="7.58" style="fill:#fafafa;"></rect><rect x="321" y="350.56" width="2.83" height="7.58" style="fill:#fafafa;"></rect><rect x="326.65" y="350.56" width="2.83" height="7.58" style="fill:#fafafa;"></rect><rect x="332.3" y="350.56" width="2.83" height="7.58" style="fill:#fafafa;"></rect><rect x="337.95" y="350.56" width="2.83" height="7.58" style="fill:#fafafa;"></rect></g><g><path d="M113.33,399.45v-121.3H51.01v121.1l62.32,.2Z" style="fill:#fafafa;"></path><rect x="55.72" y="281.92" width="7.56" height="6.36" style="fill:#e0e0e0;"></rect><rect x="70.84" y="281.92" width="7.56" height="6.36" style="fill:#e0e0e0;"></rect><rect x="85.94" y="281.92" width="7.56" height="6.36" style="fill:#e0e0e0;"></rect><rect x="101.05" y="281.92" width="7.56" height="6.36" style="fill:#e0e0e0;"></rect><rect x="55.72" y="292.59" width="7.56" height="6.36" style="fill:#e0e0e0;"></rect><rect x="70.84" y="292.59" width="7.56" height="6.36" style="fill:#e0e0e0;"></rect><rect x="85.94" y="292.59" width="7.56" height="6.36" style="fill:#e0e0e0;"></rect><rect x="101.05" y="292.59" width="7.56" height="6.36" style="fill:#e0e0e0;"></rect><rect x="55.72" y="303.25" width="7.56" height="6.36" style="fill:#e0e0e0;"></rect><rect x="70.84" y="303.25" width="7.56" height="6.36" style="fill:#e0e0e0;"></rect><rect x="85.94" y="303.25" width="7.56" height="6.36" style="fill:#e0e0e0;"></rect><rect x="101.05" y="303.25" width="7.56" height="6.36" style="fill:#e0e0e0;"></rect><rect x="55.72" y="313.92" width="7.56" height="6.36" style="fill:#e0e0e0;"></rect><rect x="70.84" y="313.92" width="7.56" height="6.36" style="fill:#e0e0e0;"></rect><rect x="85.94" y="313.92" width="7.56" height="6.36" style="fill:#e0e0e0;"></rect><rect x="101.05" y="313.92" width="7.56" height="6.36" style="fill:#e0e0e0;"></rect><rect x="55.72" y="324.57" width="7.56" height="6.36" style="fill:#e0e0e0;"></rect><rect x="70.84" y="324.57" width="7.56" height="6.36" style="fill:#e0e0e0;"></rect><rect x="85.94" y="324.57" width="7.56" height="6.36" style="fill:#e0e0e0;"></rect><rect x="101.05" y="324.57" width="7.56" height="6.36" style="fill:#e0e0e0;"></rect><rect x="55.72" y="335.23" width="7.56" height="6.36" style="fill:#e0e0e0;"></rect><rect x="70.84" y="335.23" width="7.56" height="6.36" style="fill:#e0e0e0;"></rect><rect x="85.94" y="335.23" width="7.56" height="6.36" style="fill:#e0e0e0;"></rect><rect x="101.05" y="335.23" width="7.56" height="6.36" style="fill:#e0e0e0;"></rect><rect x="55.72" y="345.9" width="7.56" height="6.36" style="fill:#e0e0e0;"></rect><rect x="70.84" y="345.9" width="7.56" height="6.36" style="fill:#e0e0e0;"></rect><rect x="85.94" y="345.9" width="7.56" height="6.36" style="fill:#e0e0e0;"></rect><rect x="101.05" y="345.9" width="7.56" height="6.36" style="fill:#e0e0e0;"></rect></g></g><g id="freepik--freepik--background-complete--inject-481-2--inject-6"><g><polygon points="664.41 278.14 664.41 235.85 638.23 235.85 638.23 245.49 620.77 245.49 620.77 139.85 587.22 139.85 587.22 181.43 577.15 181.43 577.15 160.67 550.96 160.67 550.96 261.93 514.04 261.93 514.04 226.15 490.89 226.15 490.89 148.59 462.32 148.59 462.32 200.3 435.47 200.3 435.47 311.7 414.66 311.7 414.66 257.45 393.18 257.45 393.18 222.54 370.36 222.54 370.36 195.74 344.9 209.18 344.9 280.88 318.04 280.88 318.04 266.09 282.17 266.09 282.17 399.25 699.7 399.45 699.7 278.14 664.41 278.14" style="fill:#f0f0f0;"></polygon><rect x="468.86" y="157.74" width="8.36" height="9.58" style="fill:#fafafa;"></rect><rect x="468.86" y="173.8" width="8.36" height="9.58" style="fill:#fafafa;"></rect><rect x="468.86" y="189.88" width="8.36" height="9.58" style="fill:#fafafa;"></rect><rect x="468.86" y="205.94" width="8.36" height="9.58" style="fill:#fafafa;"></rect><rect x="468.86" y="222" width="8.36" height="9.58" style="fill:#fafafa;"></rect><rect x="468.86" y="238.08" width="8.36" height="9.58" style="fill:#fafafa;"></rect><rect x="468.86" y="254.14" width="8.36" height="9.58" style="fill:#fafafa;"></rect><rect x="468.86" y="270.21" width="8.36" height="9.58" style="fill:#fafafa;"></rect><rect x="594.44" y="144.91" width="8.36" height="9.58" style="fill:#fafafa;"></rect><rect x="594.44" y="160.98" width="8.36" height="9.58" style="fill:#fafafa;"></rect><rect x="594.44" y="177.05" width="8.36" height="9.58" style="fill:#fafafa;"></rect><rect x="594.44" y="193.11" width="8.36" height="9.58" style="fill:#fafafa;"></rect><rect x="594.44" y="209.19" width="8.36" height="9.58" style="fill:#fafafa;"></rect><rect x="594.44" y="225.25" width="8.36" height="9.58" style="fill:#fafafa;"></rect><rect x="594.44" y="241.32" width="8.36" height="9.58" style="fill:#fafafa;"></rect><rect x="594.44" y="257.39" width="8.36" height="9.58" style="fill:#fafafa;"></rect></g><g><path d="M440.29,399.33V245.25h-33.26v154.06l33.26,.02Z" style="fill:#e0e0e0;"></path><rect x="409.55" y="250.14" width="4.03" height="8.32" style="fill:#fafafa;"></rect><rect x="417.61" y="250.14" width="4.03" height="8.32" style="fill:#fafafa;"></rect><rect x="425.68" y="250.14" width="4.03" height="8.32" style="fill:#fafafa;"></rect><rect x="433.74" y="250.14" width="4.03" height="8.32" style="fill:#fafafa;"></rect><rect x="409.55" y="264.09" width="4.03" height="8.32" style="fill:#fafafa;"></rect><rect x="417.61" y="264.09" width="4.03" height="8.32" style="fill:#fafafa;"></rect><rect x="425.68" y="264.09" width="4.03" height="8.32" style="fill:#fafafa;"></rect><rect x="433.74" y="264.09" width="4.03" height="8.32" style="fill:#fafafa;"></rect><rect x="409.55" y="278.03" width="4.03" height="8.32" style="fill:#fafafa;"></rect><rect x="417.61" y="278.03" width="4.03" height="8.32" style="fill:#fafafa;"></rect><rect x="425.68" y="278.03" width="4.03" height="8.32" style="fill:#fafafa;"></rect><rect x="433.74" y="278.03" width="4.03" height="8.32" style="fill:#fafafa;"></rect><rect x="409.55" y="291.97" width="4.03" height="8.32" style="fill:#fafafa;"></rect><rect x="417.61" y="291.97" width="4.03" height="8.32" style="fill:#fafafa;"></rect><rect x="425.68" y="291.97" width="4.03" height="8.32" style="fill:#fafafa;"></rect><rect x="433.74" y="291.97" width="4.03" height="8.32" style="fill:#fafafa;"></rect><rect x="409.55" y="305.91" width="4.03" height="8.32" style="fill:#fafafa;"></rect><rect x="417.61" y="305.91" width="4.03" height="8.32" style="fill:#fafafa;"></rect><rect x="425.68" y="305.91" width="4.03" height="8.32" style="fill:#fafafa;"></rect><rect x="433.74" y="305.91" width="4.03" height="8.32" style="fill:#fafafa;"></rect><rect x="409.55" y="319.85" width="4.03" height="8.32" style="fill:#fafafa;"></rect><rect x="417.61" y="319.85" width="4.03" height="8.32" style="fill:#fafafa;"></rect><rect x="425.68" y="319.85" width="4.03" height="8.32" style="fill:#fafafa;"></rect><rect x="433.74" y="319.85" width="4.03" height="8.32" style="fill:#fafafa;"></rect><rect x="409.55" y="333.8" width="4.03" height="8.32" style="fill:#fafafa;"></rect><rect x="417.61" y="333.8" width="4.03" height="8.32" style="fill:#fafafa;"></rect><rect x="425.68" y="333.8" width="4.03" height="8.32" style="fill:#fafafa;"></rect><rect x="433.74" y="333.8" width="4.03" height="8.32" style="fill:#fafafa;"></rect><rect x="409.55" y="347.75" width="4.03" height="8.32" style="fill:#fafafa;"></rect><rect x="417.61" y="347.75" width="4.03" height="8.32" style="fill:#fafafa;"></rect><rect x="425.68" y="347.75" width="4.03" height="8.32" style="fill:#fafafa;"></rect><rect x="433.74" y="347.75" width="4.03" height="8.32" style="fill:#fafafa;"></rect></g><g><path d="M555.87,399.38V227.47h-68.96v171.96s68.43,.02,68.96-.05Z" style="fill:#e6e6e6;"></path><rect x="492.08" y="233.15" width="8.36" height="9.58" style="fill:#e0e0e0;"></rect><rect x="508.81" y="233.15" width="8.36" height="9.58" style="fill:#e0e0e0;"></rect><rect x="525.53" y="233.15" width="8.36" height="9.58" style="fill:#e0e0e0;"></rect><rect x="542.26" y="233.15" width="8.36" height="9.58" style="fill:#e0e0e0;"></rect><rect x="492.08" y="249.23" width="8.36" height="9.58" style="fill:#e0e0e0;"></rect><rect x="508.81" y="249.23" width="8.36" height="9.58" style="fill:#e0e0e0;"></rect><rect x="525.53" y="249.23" width="8.36" height="9.58" style="fill:#e0e0e0;"></rect><rect x="542.26" y="249.23" width="8.36" height="9.58" style="fill:#e0e0e0;"></rect><rect x="492.08" y="265.29" width="8.36" height="9.58" style="fill:#e0e0e0;"></rect><rect x="508.81" y="265.29" width="8.36" height="9.58" style="fill:#e0e0e0;"></rect><rect x="525.53" y="265.29" width="8.36" height="9.58" style="fill:#e0e0e0;"></rect><rect x="542.26" y="265.29" width="8.36" height="9.58" style="fill:#e0e0e0;"></rect><rect x="492.08" y="281.35" width="8.36" height="9.58" style="fill:#e0e0e0;"></rect><rect x="508.81" y="281.35" width="8.36" height="9.58" style="fill:#e0e0e0;"></rect><rect x="525.53" y="281.35" width="8.36" height="9.58" style="fill:#e0e0e0;"></rect><rect x="542.26" y="281.35" width="8.36" height="9.58" style="fill:#e0e0e0;"></rect><rect x="492.08" y="297.43" width="8.36" height="9.58" style="fill:#e0e0e0;"></rect><rect x="508.81" y="297.43" width="8.36" height="9.58" style="fill:#e0e0e0;"></rect><rect x="525.53" y="297.43" width="8.36" height="9.58" style="fill:#e0e0e0;"></rect><rect x="542.26" y="297.43" width="8.36" height="9.58" style="fill:#e0e0e0;"></rect><rect x="492.08" y="313.49" width="8.36" height="9.58" style="fill:#e0e0e0;"></rect><rect x="508.81" y="313.49" width="8.36" height="9.58" style="fill:#e0e0e0;"></rect><rect x="525.53" y="313.49" width="8.36" height="9.58" style="fill:#e0e0e0;"></rect><rect x="542.26" y="313.49" width="8.36" height="9.58" style="fill:#e0e0e0;"></rect><rect x="492.08" y="329.56" width="8.36" height="9.58" style="fill:#e0e0e0;"></rect><rect x="508.81" y="329.56" width="8.36" height="9.58" style="fill:#e0e0e0;"></rect><rect x="525.53" y="329.56" width="8.36" height="9.58" style="fill:#e0e0e0;"></rect><rect x="542.26" y="329.56" width="8.36" height="9.58" style="fill:#e0e0e0;"></rect><rect x="492.08" y="345.62" width="8.36" height="9.58" style="fill:#e0e0e0;"></rect><rect x="508.81" y="345.62" width="8.36" height="9.58" style="fill:#e0e0e0;"></rect><rect x="525.53" y="345.62" width="8.36" height="9.58" style="fill:#e0e0e0;"></rect><rect x="542.26" y="345.62" width="8.36" height="9.58" style="fill:#e0e0e0;"></rect></g><g><path d="M394.93,399.3V215.45h-28.53v184c9.03-.22,28.53-.15,28.53-.15Z" style="fill:#e6e6e6;"></path><rect x="370.62" y="218.85" width="8.36" height="9.58" style="fill:#fafafa;"></rect><rect x="370.62" y="234.91" width="8.36" height="9.58" style="fill:#fafafa;"></rect><rect x="370.62" y="250.99" width="8.36" height="9.58" style="fill:#fafafa;"></rect><rect x="370.62" y="267.05" width="8.36" height="9.58" style="fill:#fafafa;"></rect><rect x="370.62" y="283.11" width="8.36" height="9.58" style="fill:#fafafa;"></rect><rect x="370.62" y="299.19" width="8.36" height="9.58" style="fill:#fafafa;"></rect><rect x="370.62" y="315.25" width="8.36" height="9.58" style="fill:#fafafa;"></rect><rect x="370.62" y="331.32" width="8.36" height="9.58" style="fill:#fafafa;"></rect><rect x="381.81" y="218.85" width="8.36" height="9.58" style="fill:#fafafa;"></rect><rect x="381.81" y="234.91" width="8.36" height="9.58" style="fill:#fafafa;"></rect><rect x="381.81" y="250.99" width="8.36" height="9.58" style="fill:#fafafa;"></rect><rect x="381.81" y="267.05" width="8.36" height="9.58" style="fill:#fafafa;"></rect><rect x="381.81" y="283.11" width="8.36" height="9.58" style="fill:#fafafa;"></rect><rect x="381.81" y="299.19" width="8.36" height="9.58" style="fill:#fafafa;"></rect><rect x="381.81" y="315.25" width="8.36" height="9.58" style="fill:#fafafa;"></rect><rect x="381.81" y="331.32" width="8.36" height="9.58" style="fill:#fafafa;"></rect></g><g><rect x="617.83" y="218.72" width="50.35" height="180.73" style="fill:#e6e6e6;"></rect><rect x="625.28" y="226.19" width="14.76" height="9.58" style="fill:#fafafa;"></rect><rect x="625.28" y="242.27" width="14.76" height="9.58" style="fill:#fafafa;"></rect><rect x="625.28" y="258.33" width="14.76" height="9.58" style="fill:#fafafa;"></rect><rect x="625.28" y="274.4" width="14.76" height="9.58" style="fill:#fafafa;"></rect><rect x="625.28" y="290.47" width="14.76" height="9.58" style="fill:#fafafa;"></rect><rect x="625.28" y="306.53" width="14.76" height="9.58" style="fill:#fafafa;"></rect><rect x="625.28" y="322.6" width="14.76" height="9.58" style="fill:#fafafa;"></rect><rect x="625.28" y="338.67" width="14.76" height="9.58" style="fill:#fafafa;"></rect><rect x="645.03" y="226.19" width="14.76" height="9.58" style="fill:#fafafa;"></rect><rect x="645.03" y="242.27" width="14.76" height="9.58" style="fill:#fafafa;"></rect><rect x="645.03" y="258.33" width="14.76" height="9.58" style="fill:#fafafa;"></rect><rect x="645.03" y="274.4" width="14.76" height="9.58" style="fill:#fafafa;"></rect><rect x="645.03" y="290.47" width="14.76" height="9.58" style="fill:#fafafa;"></rect><rect x="645.03" y="306.53" width="14.76" height="9.58" style="fill:#fafafa;"></rect><rect x="645.03" y="322.6" width="14.76" height="9.58" style="fill:#fafafa;"></rect><rect x="645.03" y="338.67" width="14.76" height="9.58" style="fill:#fafafa;"></rect></g><g><path d="M584.89,399.4v-134.11h-21.96v134.09h21.96Z" style="fill:#e0e0e0;"></path><rect x="564.6" y="269.53" width="2.66" height="7.14" style="fill:#fafafa;"></rect><rect x="569.92" y="269.53" width="2.66" height="7.14" style="fill:#fafafa;"></rect><rect x="575.24" y="269.53" width="2.66" height="7.14" style="fill:#fafafa;"></rect><rect x="580.56" y="269.53" width="2.66" height="7.14" style="fill:#fafafa;"></rect><rect x="564.6" y="281.51" width="2.66" height="7.14" style="fill:#fafafa;"></rect><rect x="569.92" y="281.51" width="2.66" height="7.14" style="fill:#fafafa;"></rect><rect x="575.24" y="281.51" width="2.66" height="7.14" style="fill:#fafafa;"></rect><rect x="580.56" y="281.51" width="2.66" height="7.14" style="fill:#fafafa;"></rect><rect x="564.6" y="293.49" width="2.66" height="7.14" style="fill:#fafafa;"></rect><rect x="569.92" y="293.49" width="2.66" height="7.14" style="fill:#fafafa;"></rect><rect x="575.24" y="293.49" width="2.66" height="7.14" style="fill:#fafafa;"></rect><rect x="580.56" y="293.49" width="2.66" height="7.14" style="fill:#fafafa;"></rect><rect x="564.6" y="305.47" width="2.66" height="7.14" style="fill:#fafafa;"></rect><rect x="569.92" y="305.47" width="2.66" height="7.14" style="fill:#fafafa;"></rect><rect x="575.24" y="305.47" width="2.66" height="7.14" style="fill:#fafafa;"></rect><rect x="580.56" y="305.47" width="2.66" height="7.14" style="fill:#fafafa;"></rect><rect x="564.6" y="317.46" width="2.66" height="7.14" style="fill:#fafafa;"></rect><rect x="569.92" y="317.46" width="2.66" height="7.14" style="fill:#fafafa;"></rect><rect x="575.24" y="317.46" width="2.66" height="7.14" style="fill:#fafafa;"></rect><rect x="580.56" y="317.46" width="2.66" height="7.14" style="fill:#fafafa;"></rect><rect x="564.6" y="329.43" width="2.66" height="7.14" style="fill:#fafafa;"></rect><rect x="569.92" y="329.43" width="2.66" height="7.14" style="fill:#fafafa;"></rect><rect x="575.24" y="329.43" width="2.66" height="7.14" style="fill:#fafafa;"></rect><rect x="580.56" y="329.43" width="2.66" height="7.14" style="fill:#fafafa;"></rect><rect x="564.6" y="341.41" width="2.66" height="7.14" style="fill:#fafafa;"></rect><rect x="569.92" y="341.41" width="2.66" height="7.14" style="fill:#fafafa;"></rect><rect x="575.24" y="341.41" width="2.66" height="7.14" style="fill:#fafafa;"></rect><rect x="580.56" y="341.41" width="2.66" height="7.14" style="fill:#fafafa;"></rect><rect x="564.6" y="353.39" width="2.66" height="7.14" style="fill:#fafafa;"></rect><rect x="569.92" y="353.39" width="2.66" height="7.14" style="fill:#fafafa;"></rect><rect x="575.24" y="353.39" width="2.66" height="7.14" style="fill:#fafafa;"></rect><rect x="580.56" y="353.39" width="2.66" height="7.14" style="fill:#fafafa;"></rect></g><g><path d="M368.95,399.45v-114.28h-58.71v114.09l58.71,.19Z" style="fill:#fafafa;"></path><rect x="314.68" y="288.73" width="7.12" height="5.99" style="fill:#e0e0e0;"></rect><rect x="328.92" y="288.73" width="7.12" height="5.99" style="fill:#e0e0e0;"></rect><rect x="343.14" y="288.73" width="7.12" height="5.99" style="fill:#e0e0e0;"></rect><rect x="357.38" y="288.73" width="7.12" height="5.99" style="fill:#e0e0e0;"></rect><rect x="314.68" y="298.77" width="7.12" height="5.99" style="fill:#e0e0e0;"></rect><rect x="328.92" y="298.77" width="7.12" height="5.99" style="fill:#e0e0e0;"></rect><rect x="343.14" y="298.77" width="7.12" height="5.99" style="fill:#e0e0e0;"></rect><rect x="357.38" y="298.77" width="7.12" height="5.99" style="fill:#e0e0e0;"></rect><rect x="314.68" y="308.82" width="7.12" height="5.99" style="fill:#e0e0e0;"></rect><rect x="328.92" y="308.82" width="7.12" height="5.99" style="fill:#e0e0e0;"></rect><rect x="343.14" y="308.82" width="7.12" height="5.99" style="fill:#e0e0e0;"></rect><rect x="357.38" y="308.82" width="7.12" height="5.99" style="fill:#e0e0e0;"></rect><rect x="314.68" y="318.87" width="7.12" height="5.99" style="fill:#e0e0e0;"></rect><rect x="328.92" y="318.87" width="7.12" height="5.99" style="fill:#e0e0e0;"></rect><rect x="343.14" y="318.87" width="7.12" height="5.99" style="fill:#e0e0e0;"></rect><rect x="357.38" y="318.87" width="7.12" height="5.99" style="fill:#e0e0e0;"></rect><rect x="314.68" y="328.9" width="7.12" height="5.99" style="fill:#e0e0e0;"></rect><rect x="328.92" y="328.9" width="7.12" height="5.99" style="fill:#e0e0e0;"></rect><rect x="343.14" y="328.9" width="7.12" height="5.99" style="fill:#e0e0e0;"></rect><rect x="357.38" y="328.9" width="7.12" height="5.99" style="fill:#e0e0e0;"></rect><rect x="314.68" y="338.95" width="7.12" height="5.99" style="fill:#e0e0e0;"></rect><rect x="328.92" y="338.95" width="7.12" height="5.99" style="fill:#e0e0e0;"></rect><rect x="343.14" y="338.95" width="7.12" height="5.99" style="fill:#e0e0e0;"></rect><rect x="357.38" y="338.95" width="7.12" height="5.99" style="fill:#e0e0e0;"></rect><rect x="314.68" y="349" width="7.12" height="5.99" style="fill:#e0e0e0;"></rect><rect x="328.92" y="349" width="7.12" height="5.99" style="fill:#e0e0e0;"></rect><rect x="343.14" y="349" width="7.12" height="5.99" style="fill:#e0e0e0;"></rect><rect x="357.38" y="349" width="7.12" height="5.99" style="fill:#e0e0e0;"></rect></g></g><g><path d="M89.18,381.69c-1.85-1.74-5.79,5.01-5.79,5.01,0,0,4.24-14.7-.01-14.75-4.25-.05-4.46,12.54-4.46,12.54,0,0-1.37-25.04-6.89-23.06-5.53,1.98,2.54,24.33,2.54,24.33,0,0-7.15-15.89-9.89-12.76-2.74,3.12,6.29,16.41,6.29,16.41,0,0-6.6-4.26-6.17-1.22,.43,3.04,14.73,10.99,14.73,10.99,4.58-5.42,11.51-15.73,9.65-17.48Z" style="fill:#e6e6e6;"></path><g><path d="M79.56,399.57c-.12,0-.22-.08-.24-.2-.02-.11-2.26-10.79-3.54-18-.02-.14,.07-.27,.2-.29,.13-.03,.27,.07,.29,.2,1.27,7.2,3.51,17.87,3.53,17.98,.03,.14-.06,.27-.19,.3-.02,0-.03,0-.05,0Z" style="fill:#e0e0e0;"></path><path d="M78.08,392.5c-.07,0-.15-.03-.19-.09l-4.37-5.42c-.09-.11-.07-.27,.04-.35,.11-.09,.26-.07,.35,.04l4.37,5.42c.09,.11,.07,.27-.04,.35-.05,.04-.1,.06-.16,.06Z" style="fill:#e0e0e0;"></path></g></g><g><path d="M444.88,384.65c-1.35-2.16-6.87,3.38-6.87,3.38,0,0,7.82-13.15,3.72-14.28s-7.49,11.01-7.49,11.01c0,0,5.01-24.57-.84-24.05-5.85,.52-3.69,24.18-3.69,24.18,0,0-2.9-17.18-6.34-14.85-3.44,2.33,1.94,17.47,1.94,17.47,0,0-5.3-5.79-5.66-2.74s11.47,14.35,11.47,14.35c5.8-4.09,15.11-12.31,13.76-14.47Z" style="fill:#e0e0e0;"></path><g><path d="M431.11,399.52h-.01c-.14,0-.24-.12-.24-.26,0-.11,.54-11.01,1.13-18.3,.01-.14,.13-.25,.27-.23,.14,.01,.24,.13,.23,.27-.59,7.29-1.12,18.18-1.13,18.29,0,.13-.12,.24-.25,.24Z" style="fill:#e0e0e0;"></path><path d="M431.47,392.3c-.1,0-.19-.05-.23-.15l-2.86-6.35c-.06-.13,0-.27,.12-.33,.12-.06,.27,0,.33,.12l2.86,6.35c.06,.13,0,.27-.12,.33-.03,.02-.07,.02-.1,.02Z" style="fill:#e0e0e0;"></path></g></g><path d="M334.34,90.85c-2.14-1.61-5.25-1.8-7.56-.44-3.07-6.19-11.61-8.93-17.7-5.66-1.59-6.67-8.17-11.8-15.03-11.72-6.86,.08-13.31,5.37-14.74,12.08-.23,1.07-.38,2.23-1.14,3.01-1.24,1.27-3.31,.84-5.07,.7-5.56-.43-11.15,3.47-12.66,8.83l76.52-.28c.67-2.59-.48-4.91-2.62-6.52Z" style="fill:#e0e0e0;"></path><path d="M654.19,92.43c-1.89-1.43-4.65-1.59-6.7-.39-2.72-5.49-10.28-7.91-15.68-5.02-1.41-5.91-7.23-10.46-13.31-10.38-6.08,.07-11.79,4.76-13.06,10.7-.2,.94-.33,1.98-1.01,2.67-1.1,1.12-2.93,.74-4.5,.62-4.92-.38-9.87,3.07-11.21,7.82l67.78-.25c.59-2.3-.43-4.35-2.32-5.78Z" style="fill:#f0f0f0;"></path><path d="M455.45,126.96c-1.18-.89-2.91-1-4.19-.25-1.7-3.43-6.43-4.95-9.81-3.14-.88-3.7-4.52-6.54-8.33-6.5-3.8,.05-7.38,2.98-8.17,6.69-.13,.59-.21,1.24-.63,1.67-.69,.7-1.83,.47-2.81,.39-3.08-.24-6.18,1.92-7.01,4.89l42.4-.15c.37-1.44-.27-2.72-1.45-3.61Z" style="fill:#f5f5f5;"></path><path d="M402.33,90.04c-.91-.69-2.25-.77-3.23-.19-1.31-2.65-4.96-3.82-7.57-2.42-.68-2.85-3.49-5.05-6.42-5.01-2.93,.04-5.69,2.3-6.3,5.17-.1,.46-.16,.96-.49,1.29-.53,.54-1.41,.36-2.17,.3-2.38-.19-4.77,1.48-5.41,3.78l32.72-.12c.29-1.11-.21-2.1-1.12-2.79Z" style="fill:#f5f5f5;"></path><path d="M180.4,90.6c-1.18-.89-2.91-1-4.19-.25-1.7-3.43-6.43-4.95-9.81-3.14-.88-3.7-4.52-6.54-8.33-6.5-3.8,.05-7.38,2.98-8.17,6.69-.13,.59-.21,1.24-.63,1.67-.69,.7-1.83,.47-2.81,.39-3.08-.24-6.18,1.92-7.01,4.89l42.4-.15c.37-1.44-.27-2.72-1.45-3.61Z" style="fill:#f5f5f5;"></path><path d="M128.52,136.04c-2.1-1.59-5.17-1.77-7.45-.44-3.02-6.1-11.44-8.8-17.44-5.58-1.57-6.58-8.05-11.63-14.81-11.55-6.76,.08-13.12,5.29-14.53,11.9-.22,1.05-.37,2.2-1.12,2.97-1.22,1.25-3.26,.83-5,.69-5.48-.43-10.98,3.42-12.47,8.7l75.4-.27c.66-2.55-.48-4.84-2.58-6.43Z" style="fill:#f0f0f0;"></path></g><g id="freepik--Shadow--inject-6"><path d="M671.69,463.28c0,3.73-132.83,6.75-296.69,6.75s-296.69-3.02-296.69-6.75,132.83-6.75,296.69-6.75,296.69,3.02,296.69,6.75Z" style="fill:#f5f5f5;"></path></g><g id="freepik--Car--inject-6"><g><polygon points="674.25 418.01 223.9 414.43 77.53 404.48 81.48 328.06 674.25 328.06 674.25 418.01"></polygon><polygon points="408.17 244.6 504.09 295.89 489.13 306.56 393.71 248.07 408.17 244.6" style="fill:#00FF88;"></polygon><path d="M700.56,337.67c-1.3-4.87-22.97-22.56-63.72-29.19-40.75-6.63-131.35-15.48-131.35-15.48l-13.44,4.42-90.17-49.54,6.61-3.17-2.27-.81c-58.09-18.14-133.95-12.05-176-6.64-42.05,5.42-112.71,42.91-125.71,49.1-13,6.19-48.12,2.21-57.22,4.42-9.1,2.21-7.8,41.58-7.8,41.58l-7.8,5.75v31.41c0,10.17,15.61,34.5,15.61,34.5,0,0,15.61,4.42,51.15,8.85,1.14,.14,2.35,.28,3.63,.42-.37-2.72-.57-5.49-.57-8.31,0-33.33,26.48-60.35,59.14-60.35s59.14,27.02,59.14,60.35c0,5.27-.67,10.39-1.91,15.26,2.36,.09,3.69,.15,3.69,.15l316.01,3.98h15.13c-2.02-6.09-3.14-12.6-3.14-19.39,0-33.33,26.48-60.35,59.14-60.35s59.14,27.02,59.14,60.35c0,6.79-1.11,13.3-3.14,19.39h22.41c6.07,0,14.74-8.85,16.04-12.83,1.3-3.98-4.33-7.52-4.33-7.52,0,0-1.3-9.29-1.3-14.6s6.5-3.54,7.37-7.96-3.03-38.93-4.33-43.79Z" style="fill:#00FF88;"></path><path d="M176.04,296.17c20.34,33.88,40.58,67.95,57.43,103.74,61.28,.47,175.55,2.7,236.76,3.21,11.28,.11,22.58,.3,33.85,.23l-.45,.44c.71-20.08,2.27-43.79,2.05-63.71-.22-13.69-3.19-25.09-15.95-32.11l-1.37-.79c48.18,4.12,96.39,7.97,144.43,13.55,15.79,1.95,31.59,5.12,46.44,10.94-7.39-2.99-15.15-4.97-22.91-6.75-7.77-1.81-15.65-3.01-23.57-3.92-47.54-5.19-95.23-9.02-142.88-12.99l.2-.66c13,7.13,16.15,18.76,16.38,32.7,.26,19.9-1.22,43.73-1.91,63.77l-.02,.43c-11.45,.11-22.87-.07-34.31-.16-61.33-.88-175.13-2.45-237.26-3.96-16.8-35.78-36.76-70-56.92-103.97h0Z" style="fill:#263238;"></path><path d="M173.54,265.58c-7.46,6.84-18.08,15.28-27.5,24.29-2.3,2.2-.76,6.16,2.4,6.17l31.69,.13-6.59-30.58Z" style="fill:#263238;"></path><path d="M176.04,296.17s-11.89-12.41-10.96-18.71c1.58-10.71,19.09-23.39,70.13-32.35,51.04-8.96,114.12-3.65,136.88,0,22.76,3.65,64.56,23.66,103.06,51.07,1.89,1.34,13.98,10.39,13.98,10.39l-313.09-10.39Z" style="fill:#00FF88;"></path><path d="M176.04,296.17s-11.89-12.41-10.96-18.71c1.58-10.71,19.09-23.39,70.13-32.35,51.04-8.96,114.12-3.65,136.88,0,22.76,3.65,64.56,23.66,103.06,51.07,1.89,1.34,13.98,10.39,13.98,10.39l-313.09-10.39Z" style="fill:#fff; isolation:isolate; opacity:.8;"></path><path d="M457.21,284.06l-9.49,21.74,41.41,.76s-26.29-21.18-31.92-22.49Z" style="fill:#263238;"></path><polygon points="309.79 240.18 313.37 300.72 344.7 301.91 325.9 240.8 309.79 240.18" style="fill:#263238;"></polygon><path d="M318.45,240.45c8.99,54.32,16.63,109.48,18.39,164.54-.9-13.77-1.96-27.54-3.14-41.29-3.23-39.76-9.91-83.5-15.25-123.25h0Z" style="fill:#263238;"></path><path d="M459.94,286.04s-6.56-3.35-11.33-2.74c-4.77,.61-9.99,1.98-12.82,6.08-2.83,4.11-2.24,13.08,0,14.3,2.24,1.22,25.64,1.83,28.32-2.89,2.68-4.72,1.04-11.26-4.17-14.75Z" style="fill:#00FF88;"></path><polygon points="223.9 247.26 225.51 297.81 232.88 298.05 230.27 246 223.9 247.26" style="fill:#263238;"></polygon><path d="M41.76,304.55c.27-1.16,21.89,2.33,21.52,9.35s-2.33,9.47-10.76,14.16c-8.43,4.68-12.16,4.31-12.16,4.31-.22,.36,.11-22.33,1.39-27.82Z" style="isolation:isolate; opacity:.3;"></path><path d="M131.11,355.5c-14.61-.93-29.17-2.36-43.69-4.25-6.34-.98-12.78-1.68-18.93-3.6-.81-.22-1.79-.91-2.48-1.4-5.72-4.7-10.03-10.73-14.18-16.77,4.43,5.72,8.92,11.68,14.64,16.15,.67,.44,1.52,1.03,2.31,1.23,6.09,1.83,12.5,2.48,18.78,3.4,12.61,1.76,30.74,3.71,43.56,5.24h0Z" style="fill:#263238;"></path><path d="M646.51,358.58c.06,.15,.26,.15,.4,.17,2.36,.03,4.71-.46,7.03-.82,6.14-1.07,12.5-2.25,17.42-6.35,1.01-.75,1.97-1.58,2.88-2.46-4.94,6.67-12.29,8.79-20.19,9.58-2.37,.2-4.79,.53-7.16,.14-.14-.05-.35-.08-.39-.25h0Z" style="fill:#263238;"></path><path d="M658.49,343.16c-.34-.46-1.58-4.03,4.94-6.45s10.08-5.04,15.81-5.04,14.23,2.02,17.59,4.23c3.36,2.22,4.15,17.28,1.98,20.13-2.17,2.85-37.94-9.65-40.31-12.87Z" style="fill:#fff;"></path><rect x="340.28" y="312.88" width="28.95" height="6.52" rx="2.69" ry="2.69" style="isolation:isolate; opacity:.3;"></rect><g style="isolation:isolate; opacity:.2;"><path d="M556.56,327.1c-151,0-306.39-10.97-457.4-10.97,0,0,78.53,12.67,101.77,13.27,23.24,.59,355.63-2.3,355.63-2.3Z" style="fill:#fff;"></path></g><g><ellipse cx="609.62" cy="404.58" rx="54.36" ry="55.47" style="fill:#263238;"></ellipse><ellipse cx="609.62" cy="404.58" rx="33.33" ry="34.01" style="fill:#fff; isolation:isolate; opacity:.4;"></ellipse><g style="opacity:.3;"><path d="M612.28,376.7v17.43c0,1.5-1.19,2.72-2.66,2.72h-.02c-1.47,0-2.66-1.22-2.66-2.72v-17.43c0-1.5,1.19-2.72,2.66-2.72h.02c1.47,0,2.66,1.22,2.66,2.72Z" style="fill:#fff;"></path></g><g style="opacity:.3;"><path d="M612.28,415.02v17.43c0,1.5-1.19,2.72-2.66,2.72h-.02c-1.47,0-2.66-1.22-2.66-2.72v-17.43c0-1.5,1.19-2.72,2.66-2.72h.02c1.47,0,2.66,1.22,2.66,2.72Z" style="fill:#fff;"></path></g><g style="opacity:.3;"><path d="M619.78,401.72c-1.27,.73-2.88,.28-3.6-1.02h0c-.74-1.3-.31-2.96,.96-3.71l14.8-8.76h0c1.27-.75,2.9-.3,3.63,1h0c.73,1.31,.29,2.97-.98,3.71l-14.78,8.76-.04,.02Z" style="fill:#fff;"></path></g><g style="opacity:.3;"><path d="M583.64,419.8h0c-.73-1.31-.29-2.97,.98-3.71l14.78-8.76c1.28-.76,2.91-.32,3.66,.98h0c.74,1.31,.3,2.98-.98,3.73l-14.78,8.76c-1.28,.75-2.92,.31-3.66-1Z" style="fill:#fff;"></path></g><g style="opacity:.3;"><path d="M635.57,419.88c-.74,1.3-2.36,1.74-3.64,.99l-14.8-8.76c-1.27-.76-1.7-2.43-.96-3.73h0c.74-1.3,2.37-1.74,3.64-.98l14.78,8.76h0c1.27,.75,1.71,2.42,.97,3.71h0Z" style="fill:#fff;"></path></g><g style="opacity:.3;"><path d="M603.04,400.73c-.74,1.29-2.37,1.73-3.64,.97l-14.78-8.76h0c-1.27-.75-1.71-2.42-.97-3.71h0c.74-1.31,2.38-1.75,3.66-1l14.78,8.76h0c1.27,.75,1.71,2.42,.97,3.71h0l-.02,.03Z" style="fill:#fff;"></path></g><path d="M609.62,400h0c2.48,0,4.48,2.05,4.48,4.57s-2.01,4.57-4.48,4.57-4.48-2.05-4.48-4.57,2.01-4.57,4.48-4.57Z" style="fill:#263238;"></path></g><g><ellipse cx="161.21" cy="403.8" rx="53.6" ry="54.69" style="fill:#263238;"></ellipse><ellipse cx="161.21" cy="403.8" rx="32.86" ry="33.53" style="fill:#fff; isolation:isolate; opacity:.4;"></ellipse><g style="opacity:.3;"><path d="M163.84,376.31v17.19c0,1.48-1.17,2.68-2.62,2.68h-.02c-1.45,0-2.62-1.2-2.62-2.68v-17.19c0-1.48,1.17-2.68,2.62-2.68h.02c1.45,0,2.62,1.2,2.62,2.68Z" style="fill:#fff;"></path></g><g style="opacity:.3;"><path d="M163.84,414.09v17.19c0,1.48-1.17,2.68-2.62,2.68h-.02c-1.45,0-2.62-1.2-2.62-2.68v-17.19c0-1.48,1.17-2.68,2.62-2.68h.02c1.45,0,2.62,1.2,2.62,2.68Z" style="fill:#fff;"></path></g><g style="opacity:.3;"><path d="M171.24,400.99c-1.25,.72-2.84,.27-3.55-1.01h0c-.73-1.28-.3-2.92,.95-3.66l14.59-8.64h0c1.26-.74,2.86-.3,3.58,.98h0c.72,1.29,.29,2.93-.97,3.66l-14.58,8.64-.04,.02Z" style="fill:#fff;"></path></g><g style="opacity:.3;"><path d="M135.6,418.81h0c-.72-1.29-.29-2.93,.97-3.66l14.58-8.64c1.26-.75,2.87-.31,3.61,.97h0c.73,1.29,.3,2.93-.96,3.68l-14.58,8.64c-1.26,.74-2.88,.3-3.61-.98Z" style="fill:#fff;"></path></g><g style="opacity:.3;"><path d="M186.81,418.88c-.73,1.28-2.33,1.72-3.59,.98l-14.59-8.64c-1.26-.75-1.68-2.4-.95-3.68h0c.73-1.28,2.34-1.71,3.59-.97l14.58,8.64h0c1.25,.74,1.68,2.38,.96,3.66h0Z" style="fill:#fff;"></path></g><g style="opacity:.3;"><path d="M154.73,400.01c-.73,1.28-2.34,1.7-3.59,.96l-14.58-8.64h0c-1.25-.74-1.68-2.38-.96-3.66h0c.73-1.29,2.34-1.73,3.61-.98l14.58,8.64h0c1.25,.74,1.68,2.38,.96,3.66h0l-.02,.03Z" style="fill:#fff;"></path></g><path d="M161.22,399.29h0c2.44,0,4.42,2.02,4.42,4.51s-1.98,4.51-4.42,4.51-4.42-2.02-4.42-4.51,1.98-4.51,4.42-4.51Z" style="fill:#263238;"></path></g><path d="M665.59,424.37l3.14-19.39,30.98-.96s7.7,3.48,3.95,10.49c-2.22,4.15-4.35,8.43-13.35,9.86-9,1.43-24.71,0-24.71,0Z" style="fill:#263238;"></path><path d="M218.75,420.24l1.91-15.26,329.88,3.32,3.04,16.07c-74.4,1.17-202.58-1.34-334.83-4.13Z" style="fill:#263238;"></path><polygon points="232.4 288.61 290.77 240.45 309.79 240.18 252.14 298.69 232.88 298.05 232.4 288.61" style="fill:#fff; isolation:isolate; opacity:.8;"></polygon></g></g><g id="freepik--Speech_Bubble_2--inject-6"><g><path d="M518.39,149.4c6.25-10.76,2.6-24.56-8.16-30.81-10.76-6.25-24.56-2.6-30.81,8.16-4.83,8.31-3.73,18.41,1.96,25.47l-1.1,6.68,6.98-1.54c.11,.06,.2,.14,.31,.2,10.76,6.25,24.56,2.6,30.81-8.16Z" style="fill:#00FF88;"></path><g><path d="M496.92,142.51c-.66,.61-1.61,.96-2.86,1.06v1.87h-1.06v-1.87c-.81-.04-1.57-.2-2.29-.46-.72-.26-1.3-.59-1.73-.99l.61-1.29c.4,.36,.9,.67,1.51,.9,.61,.24,1.24,.38,1.91,.42v-3.84c-.77-.19-1.42-.39-1.93-.61-.51-.22-.94-.55-1.29-.98-.35-.43-.52-.99-.52-1.69,0-.87,.32-1.61,.95-2.22,.63-.61,1.57-.96,2.79-1.06v-1.89h1.06v1.87c.63,.02,1.24,.12,1.83,.3,.59,.18,1.1,.41,1.53,.71l-.55,1.33c-.89-.56-1.83-.87-2.82-.93v3.86c.81,.2,1.47,.41,1.99,.62,.52,.22,.96,.54,1.32,.96,.36,.43,.54,.99,.54,1.7,0,.87-.33,1.61-.99,2.22Zm-5.49-6.43c.36,.27,.89,.49,1.57,.66v-3.58c-.71,.09-1.24,.3-1.59,.62-.35,.33-.53,.72-.53,1.18s.18,.85,.55,1.11Zm4.3,5.49c.37-.31,.56-.71,.56-1.18s-.19-.86-.57-1.12c-.38-.26-.93-.49-1.65-.69v3.56c.74-.07,1.29-.26,1.66-.57Z" style="fill:#fff;"></path><path d="M507.21,142.51c-.66,.61-1.61,.96-2.86,1.06v1.87h-1.06v-1.87c-.81-.04-1.57-.2-2.29-.46-.72-.26-1.3-.59-1.73-.99l.61-1.29c.4,.36,.9,.67,1.51,.9,.61,.24,1.24,.38,1.91,.42v-3.84c-.77-.19-1.42-.39-1.93-.61-.51-.22-.94-.55-1.29-.98-.35-.43-.52-.99-.52-1.69,0-.87,.32-1.61,.95-2.22,.63-.61,1.57-.96,2.79-1.06v-1.89h1.06v1.87c.63,.02,1.24,.12,1.83,.3,.59,.18,1.1,.41,1.53,.71l-.55,1.33c-.89-.56-1.83-.87-2.82-.93v3.86c.81,.2,1.47,.41,1.99,.62,.52,.22,.96,.54,1.32,.96,.36,.43,.54,.99,.54,1.7,0,.87-.33,1.61-.99,2.22Zm-5.49-6.43c.36,.27,.89,.49,1.57,.66v-3.58c-.71,.09-1.24,.3-1.59,.62-.35,.33-.53,.72-.53,1.18s.18,.85,.55,1.11Zm4.3,5.49c.37-.31,.56-.71,.56-1.18s-.19-.86-.57-1.12c-.38-.26-.93-.49-1.65-.69v3.56c.74-.07,1.29-.26,1.67-.57Z" style="fill:#fff;"></path></g></g></g><g id="freepik--Speech_Bubble_1--inject-6"><g><path d="M219.76,176.94c-5.38-9.25-2.23-21.11,7.02-26.48,9.25-5.38,21.11-2.23,26.48,7.02,4.15,7.14,3.21,15.82-1.69,21.89l.94,5.74-6-1.32c-.09,.06-.18,.12-.27,.18-9.25,5.38-21.11,2.23-26.48-7.02Z" style="fill:#00FF88;"></path><path d="M214.78,167.14c-.13,0-.24-.1-.25-.23-.46-6.34,2.54-12.89,7.64-16.69,.11-.08,.27-.06,.35,.05,.08,.11,.06,.27-.05,.35-4.96,3.7-7.88,10.08-7.44,16.25,0,.14-.09,.26-.23,.27h-.02Z" style="fill:#00FF88;"></path><path d="M215.67,172.82c-.1,0-.19-.06-.23-.15-.4-.91-.6-1.91-.6-2.9,0-.14,.11-.25,.25-.25h0c.14,0,.25,.11,.25,.25,0,.92,.19,1.86,.56,2.7,.06,.13,0,.27-.13,.33-.03,.01-.07,.02-.1,.02Z" style="fill:#00FF88;"></path><path d="M236.51,177.36c-.73,0-1.34-.23-1.82-.71-.49-.47-.73-1.04-.73-1.72s.24-1.24,.72-1.69c.48-.45,1.09-.68,1.84-.68s1.36,.23,1.84,.68c.48,.45,.72,1.02,.72,1.69s-.24,1.25-.73,1.72c-.49,.47-1.1,.71-1.82,.71Zm1.65-6.69h-3.3l-.83-12.17h4.96l-.83,12.17Z" style="fill:#fff;"></path></g></g><g id="freepik--Character_2--inject-6"><g><g><g><path d="M447.74,190.05s-1.48-6.3,1.23-17.71c0-.01-.61-.25-.61-.26,.37-1.59,.78-3.07,1.17-4.35,0-.04,0-.05,0-.05l-14.92,10.26c.54,3.58-.42,10.59-1.04,13.57,0,0-1.68,5.41,5.4,5.3,5.18-.08,8.76-6.76,8.76-6.76Z" style="fill:#ffb573;"></path><g><g style="opacity:.2;"><path d="M442.64,180.53c-1.85,2.12-5.06,3.31-8.01,3.37,.04-.26,.03-.66,.07-.92,.05-.41,.05-1.04,.07-1.47,.02-.53,.03-1.11,0-1.65-.03-.22-.11-.19-.14-.4l-.05-.45,8.93-3.03c.72,.53,.63,2.83-.87,4.55Z"></path></g><path d="M454.73,158.62c2.14-9.58-6.19-18.41-16.13-16.1-10.09,2.34-13.7,16.5-13.01,25.53,.77,10.03,12.01,16.37,20.55,10.07,5.68-4.19,6.45-9.91,8.58-19.49h0Z" style="fill:#ffb573;"></path><path d="M447.83,143.57s-8.54,7.95-16.89,3.84c-8.35-4.11,10.07-12.32,16.89-3.84Z" style="fill:#263238;"></path><path d="M445.47,145.96s2.32,1.9,2.29,4.21c-.02,1.39-.61,6.54-1.07,10.41-.22,1.85,1.75,3.16,3.37,2.23,1.99-1.14,4.16-2.32,5.01-2.56,.5-.14,.53-1.17,.79-2.26,.98-4.13,1.82-6.47-1.26-9.41-2.11-2.02-6.45-5.69-7.94-5.43-3.07,.53-1.19,2.8-1.19,2.8Z" style="fill:#263238;"></path></g><g><path d="M457.4,165.59c-1.04,2.53-3.16,4.34-5.25,5.16-3.15,1.23-3.99-2.17-3.42-5.33,.51-2.85,1.66-6.27,4.97-6.15,3.26,.12,4.89,3.43,3.7,6.32Z" style="fill:#ffb573;"></path><path d="M440.85,160.74c-.09,1-.69,1.76-1.34,1.69-.65-.06-1.11-.93-1.02-1.93,.09-1,.69-1.76,1.34-1.69,.65,.06,1.11,.93,1.02,1.93Z" style="fill:#263238;"></path><path d="M431.17,160.08c-.09,1-.69,1.76-1.34,1.69-.65-.06-1.11-.93-1.02-1.93,.09-1,.69-1.76,1.34-1.69,.65,.06,1.11,.93,1.02,1.93Z" style="fill:#263238;"></path><path d="M434.05,158.89s-3.6,4.69-4.79,6.62c1.28,1.38,3.73,1.01,3.73,1.01l1.07-7.63Z" style="fill:#d58745;"></path><path d="M441.6,156.15c-.08,.14-.23,.24-.41,.25-2.05,.06-2.95,1.39-3.04,1.53-.14,.22-.43,.29-.65,.16-.22-.13-.29-.42-.15-.64,.05-.08,1.21-1.91,3.82-1.98,.26,0,.48,.2,.48,.45,0,.08-.02,.16-.06,.23Z" style="fill:#263238;"></path><path d="M450.45,165.46s-.03,0-.05,0c-.14-.03-.22-.16-.2-.29,.19-.91,.61-1.75,1.22-2.45,.41-.47,1.1-1.06,1.99-1.2,.88-.14,1.76,.26,2.15,.95,.07,.12,.02,.27-.1,.34-.12,.07-.27,.02-.34-.1-.28-.51-.97-.8-1.63-.7-.75,.12-1.33,.63-1.69,1.03-.55,.63-.93,1.4-1.1,2.22-.02,.12-.13,.2-.25,.2Z" style="opacity:.2;"></path><path d="M428.32,156.49c-.07-.06-.12-.14-.15-.23-.07-.25,.07-.51,.32-.59,2.48-.73,4.12,.68,4.2,.73,.2,.17,.22,.47,.05,.67-.17,.2-.46,.22-.66,.05-.07-.06-1.34-1.13-3.33-.54-.16,.05-.32,0-.43-.09Z" style="fill:#263238;"></path></g><path d="M437.38,167.23c-1.62,.07-3.21,.64-4.43,1.7-.47,.41-.87,.88-1.04,1.38-.54,1.59,5.3,.39,7.7-.53,2.4-.92,1.87-1.82,.53-2.33-.64-.24-1.76-.27-2.76-.22Z" style="fill:#263238;"></path></g><path d="M434.58,172.74s-.1-.01-.14-.04c-.11-.08-.14-.23-.07-.35,.31-.47,1.34-1.54,4.12-1.35,.14,0,.24,.13,.23,.27,0,.14-.12,.25-.27,.23-2.57-.18-3.46,.82-3.67,1.13-.05,.07-.13,.11-.21,.11Z" style="fill:#263238;"></path><g><path d="M456.57,149.4s4.17-.17,3.91-2.72c-.26-2.55-1.45-3.49-8-5.79-6.55-2.3-9.28-4.94-17.36-5.62-8.08-.68-11.66,1.19-12.76,4.94-1.11,3.74,4.6,6.47,4.6,6.47l.26,2.72h29.36Z" style="fill:#263238;"></path><path d="M446.95,150.42s-4.94,3.49-13.45,3.83c-8.51,.34-13.7,.68-12.85-.43,.85-1.11,6.55-4.43,6.55-4.43l19.74,1.02Z" style="fill:#263238;"></path><polygon points="426.74 149.68 456.57 151.19 456.57 149.4 427.03 147.55 426.74 149.68" style="fill:#00FF88;"></polygon></g><g><path d="M433.33,140.66c1.1,1.02,2.82,.95,3.83-.15,0,2.65-1.56,5.04-3.98,6.12-2.42-1.07-3.98-3.47-3.99-6.12,.05,.05,.1,.1,.15,.15,1.1,1.02,2.82,.95,3.83-.15,.05,.05,.1,.1,.15,.15Z" style="fill:#00FF88;"></path><path d="M433.33,140.66c1.1,1.02,2.82,.95,3.83-.15,0,2.65-1.56,5.04-3.98,6.12-2.42-1.07-3.98-3.47-3.99-6.12,.05,.05,.1,.1,.15,.15,1.1,1.02,2.82,.95,3.83-.15,.05,.05,.1,.1,.15,.15Z" style="fill:#fff; isolation:isolate; opacity:.4;"></path><path d="M433.18,146.62v-6.12c-.05,.05-.1,.1-.15,.15-1.1,1.02-2.82,.95-3.83-.15,0,2.65,1.56,5.04,3.99,6.12Z" style="fill:#fff; isolation:isolate; opacity:.2;"></path></g></g><g><path d="M453.24,190.53c1.23,.25,15.2,2.31,15.2,2.31l-.76,77.16s-12.55,3.18-32.8,3.5c-22.54,.35-25.46,.04-25.46,.04l3.97-81.01,13.35-1.72,6.55-5.59,5.22,8.68,9.16-9.96,5.56,6.59Z" style="fill:#00FF88;"></path><polygon points="439.17 203.27 446.6 259.72 435.74 268.25 428.3 256.42 435.43 202.94 439.17 203.27" style="fill:#263238;"></polygon><polygon points="414.47 221.33 422.25 223.69 429.74 221.33 430.17 219.1 414.47 219.1 414.47 221.33" style="isolation:isolate; opacity:.2;"></polygon><path d="M413.69,192.53s-3.02,.07-5.07,3.28c-3.01,4.71-11.87,35.29-11.87,35.29h16.39l.54-38.57Z" style="fill:#00FF88;"></path><path d="M408.62,222.76s2.06-5.05,3.93-5.89c1.87-.84,10.69-.15,12.14,2.87,.78,1.62,3.67,12.41,3.67,12.41l29.77,9.83,.77-5.54h17.48s-3.71,23.55-9.85,24.54c-7.11,1.14-10.58-1.01-18.06-5.21-6.45-3.63-24.29-16.85-24.29-16.85l-15.55-16.16Z" style="fill:#ffb573;"></path><polygon points="408.16 209.68 434.42 248.26 432.29 249.34 406.75 244.75 382.58 208.26 383.74 206.24 408.16 209.68" style="fill:#263238;"></polygon><path d="M406.8,212.06c.63,.42,25.49,37.28,25.49,37.28l-25.49-4.58-24.22-36.49,24.22,3.79Z" style="opacity:.3;"></path><polygon points="442.43 221.33 450.21 223.69 457.7 221.33 458.12 219.1 442.43 219.1 442.43 221.33" style="isolation:isolate; opacity:.2;"></polygon><g><path d="M450.47,209.04c1.44,1.33,3.68,1.24,5-.2,0,3.46-2.04,6.59-5.2,7.99-3.16-1.4-5.2-4.53-5.2-7.99,.06,.07,.13,.13,.2,.2,1.44,1.33,3.68,1.24,5-.2,.06,.07,.13,.13,.2,.2Z" style="fill:#00FF88;"></path><path d="M450.47,209.04c1.44,1.33,3.68,1.24,5-.2,0,3.46-2.04,6.59-5.2,7.99-3.16-1.4-5.2-4.53-5.2-7.99,.06,.07,.13,.13,.2,.2,1.44,1.33,3.68,1.24,5-.2,.06,.07,.13,.13,.2,.2Z" style="fill:#fff; isolation:isolate; opacity:.4;"></path><path d="M450.27,216.83v-7.99c-.06,.07-.13,.13-.2,.2-1.44,1.33-3.68,1.24-5-.2,0,3.46,2.04,6.59,5.2,7.99Z" style="fill:#fff; isolation:isolate; opacity:.2;"></path></g><g><path d="M465.77,191.39s.4,2.18-1.64,2.07c-2.04-.12-10.2-.83-10.2-.83l.86-2.24s7.28-1.28,10.97,1.01Z" style="fill:#00FF88;"></path><path d="M465.77,191.39s.4,2.18-1.64,2.07c-2.04-.12-10.2-.83-10.2-.83l.86-2.24s7.28-1.28,10.97,1.01Z" style="opacity:.4;"></path></g><g><path d="M415.21,191.39s-.4,2.18,1.64,2.07c2.04-.12,10.2-.83,10.2-.83l-.86-2.24s-7.28-1.28-10.97,1.01Z" style="fill:#00FF88;"></path><path d="M415.21,191.39s-.4,2.18,1.64,2.07c2.04-.12,10.2-.83,10.2-.83l-.86-2.24s-7.28-1.28-10.97,1.01Z" style="opacity:.4;"></path></g><path d="M479.8,240s-.97-35.94-4.17-41.36c-3.2-5.41-8.38-6.12-8.38-6.12l-14.02,45.26,26.56,2.21Z" style="fill:#00FF88;"></path><path d="M461.59,210.82c-.73,9.16-1.6,18.31-2.56,27.45l-.22-.26c7,.6,14,1.24,20.99,1.99-7.02-.42-14.02-.95-21.03-1.51l-.24-.02,.02-.24c.91-9.15,1.9-18.28,3.03-27.4h0Z" style="fill:#263238;"></path><path d="M453.24,190.53l-10.1,10.06-4.21-6.1s-4.92,4.84-5.49,5.01c-.57,.17-6.7-8.69-6.7-8.69l6.05,11.11,5.73-5.7s4.71,7.12,4.55,7.04c-.17-.08,10.18-12.74,10.18-12.74Z" style="isolation:isolate; opacity:.2;"></path><polygon points="442.3 199.38 439.17 203.27 435.43 202.94 434.42 198.76 438.93 194.5 442.3 199.38" style="fill:#263238;"></polygon><polygon points="432.29 249.34 434.42 248.26 408.16 209.68 406.8 212.06 432.29 249.34" style="fill:#fff; opacity:.3;"></polygon><path d="M406.66,209.47s-3.55,.04-2.06,3.9c1.48,3.86,11.18,14.85,14.14,20.99,1.29,2.67-.87,7.09-.87,7.09l-18.48-.45s-.27-5.32-2.63-9.9-12.51-17.72-13.34-20.28c-.83-2.56,2.08-4.59,2.08-4.59l21.17,3.23Z" style="fill:#00FF88;"></path><path d="M406.66,209.47s-3.55,.04-2.06,3.9c1.48,3.86,11.18,14.85,14.14,20.99,1.29,2.67-.87,7.09-.87,7.09l-18.48-.45s-.27-5.32-2.63-9.9-12.51-17.72-13.34-20.28c-.83-2.56,2.08-4.59,2.08-4.59l21.17,3.23Z" style="fill:#fff; isolation:isolate; opacity:.7;"></path><g><path d="M396.1,229.38s5.7-.25,7.29,1.12c1.59,1.37-.59,2.48-.59,2.48,0,0,2.5-1.04,3.24,.24,.89,1.53-1.41,2.68-1.41,2.68,0,0,2.09-.74,2.69,.43,.63,1.22-1.85,2.75-1.85,2.75,0,0,1.61-.17,1.67,.83,.06,1-5.12,4.39-7.4,4.03-2.28-.36-7.35-8.22-7.58-10.37-.22-2.12,.05-4,2.14-6.37l1.79,2.18h0Z" style="fill:#ffb573;"></path><path d="M402.88,233.13h-.01l-4.48,1.55c-.06,.02-.14-.03-.17-.11-.04-.08-.01-.17,.04-.19l4.48-1.54c.06-.02,.14,.03,.17,.11,.03,.08,.02,.16-.03,.19Z" style="opacity:.2;"></path><path d="M404.6,236.12h0l-4.13,1.91c-.06,.03-.14-.02-.18-.1-.04-.08-.03-.15,.03-.2l4.13-1.91c.06-.03,.14,.02,.18,.1,.04,.08,.03,.17-.03,.2Z" style="opacity:.2;"></path><path d="M405.42,239.31l-3.02,1.53c-.06,.03-.14-.01-.18-.1-.04-.08-.03-.17,.03-.2l3.02-1.53c.06-.03,.14,.01,.18,.1,.04,.08,.03,.17-.03,.2Z" style="opacity:.2;"></path></g></g><g><polygon points="465.45 452.07 465.92 446.16 454.38 446.16 455.14 452.57 463.65 455.93 465.45 452.07" style="fill:#263238;"></polygon><g><path d="M454.66,452.45h3.07c.69,0,1.34,.35,1.75,.91,1.77,2.42,3.1,1.5,5.02-.77,1.22-.14,1.55,1.26,1.65,1.64l2.29,8.34c.2,.7-.2,1.42-.9,1.62-.12,.04-.25,.05-.38,.05h-24.31c-3.87,0-4.67-3.9-3.08-4.26,7.16-1.58,12.23-3.69,14.45-5.77,.41-.36-.01-.64,.44-1.77Z" style="fill:#263238;"></path><path d="M455.14,456.75c-.08,0-.16-.04-.21-.12-.53-.84-1.44-1.43-2.43-1.56-.14-.02-.23-.15-.21-.28,.02-.14,.14-.22,.28-.21,1.13,.16,2.17,.83,2.78,1.79,.07,.12,.04,.27-.08,.34-.04,.03-.09,.04-.13,.04Z" style="fill:#00FF88;"></path><path d="M453.23,458.18c-.08,0-.16-.04-.21-.12-.53-.84-1.44-1.43-2.43-1.56-.14-.02-.23-.15-.21-.28,.02-.14,.14-.22,.28-.21,1.13,.16,2.17,.83,2.78,1.79,.07,.12,.04,.27-.08,.34-.04,.03-.09,.04-.13,.04Z" style="fill:#00FF88;"></path><path d="M450.86,459.39c-.08,0-.16-.04-.21-.12-.53-.84-1.44-1.43-2.43-1.56-.14-.02-.23-.15-.21-.28,.02-.14,.14-.23,.28-.21,1.13,.16,2.17,.83,2.78,1.79,.07,.12,.04,.27-.08,.34-.04,.03-.09,.04-.13,.04Z" style="fill:#00FF88;"></path></g></g><g><polygon points="419.93 452.07 420.4 446.16 408.86 446.16 409.62 452.57 418.13 455.93 419.93 452.07" style="fill:#263238;"></polygon><g><path d="M409.14,452.45h3.07c.69,0,1.34,.35,1.75,.91,1.77,2.42,3.1,1.5,5.02-.77,1.22-.14,1.55,1.26,1.65,1.64l2.29,8.34c.2,.7-.2,1.42-.9,1.62-.12,.04-.25,.05-.38,.05h-24.31c-3.87,0-4.67-3.9-3.08-4.26,7.16-1.58,12.23-3.69,14.45-5.77,.41-.36-.01-.64,.44-1.77Z" style="fill:#263238;"></path><path d="M409.62,456.75c-.08,0-.16-.04-.21-.12-.53-.84-1.44-1.43-2.43-1.56-.14-.02-.23-.15-.21-.28,.02-.14,.14-.22,.28-.21,1.13,.16,2.17,.83,2.78,1.79,.07,.12,.04,.27-.08,.34-.04,.03-.09,.04-.13,.04Z" style="fill:#00FF88;"></path><path d="M407.71,458.18c-.08,0-.16-.04-.21-.12-.53-.84-1.44-1.43-2.43-1.56-.14-.02-.23-.15-.21-.28,.02-.14,.14-.22,.28-.21,1.13,.16,2.17,.83,2.78,1.79,.07,.12,.04,.27-.08,.34-.04,.03-.09,.04-.13,.04Z" style="fill:#00FF88;"></path><path d="M405.34,459.39c-.08,0-.16-.04-.21-.12-.53-.84-1.44-1.43-2.43-1.56-.14-.02-.23-.15-.21-.28,.02-.14,.14-.23,.28-.21,1.13,.16,2.17,.83,2.78,1.79,.07,.12,.04,.27-.08,.34-.04,.03-.09,.04-.13,.04Z" style="fill:#00FF88;"></path></g></g><path d="M410.49,280.48s0-.08,0-.12c.11-.45,.23-.89,.34-1.31,0-.04,0-.07,0-.11,.31-1.23,.59-2.28,.84-3.29h56.37v9.92c.18,10.71,.54,28.29,1.09,45.46,0,.68,0,1.35,.07,2.02,.07,.67,0,1.07,0,1.61,.2,6.06,.43,11.94,.7,17.41,.27,5.47,.54,10.63,.86,14.9,0,.3,0,.62,.08,.94,0,.58,.08,1.17,.13,1.79,2.08,25.24,.85,68.09,.44,83.8l-20.38-.06s-5.17-62.37-8.81-88.28c-.06-.42-.15-.82-.23-1.21-2-10.25-4.29-29.54-6.24-47.66l-4.79,17.51c-10.93,41.95-7.93,119.7-7.93,119.7h-19.89c-11.2-64.28,1.26-144.99,7.33-173Z" style="fill:#263238;"></path><g><polygon points="467.61 275.8 408.52 275.45 408.82 270.65 467.56 269.91 467.61 275.8"></polygon><rect x="431.52" y="269.33" width="10.51" height="6.47" style="fill:#263238;"></rect><rect x="431.52" y="269.33" width="10.51" height="6.47" style="fill:#fff; isolation:isolate; opacity:.6;"></rect><rect x="452.91" y="269.91" width="3.81" height="6.46" style="fill:#263238;"></rect><rect x="416.46" y="269.91" width="3.47" height="5.89" style="fill:#263238;"></rect></g><g><path d="M460.05,277.7c.01-.2,.01-.41,0-.61-.17-2.83-2.6-4.98-5.42-4.81-2.83,.17-4.98,2.6-4.81,5.42h1.42c0-2.04,1.65-3.69,3.69-3.69s3.69,1.65,3.69,3.69h1.44Z" style="fill:#263238;"></path><g style="opacity:.7;"><path d="M460.05,277.7c.01-.2,.01-.41,0-.61-.17-2.83-2.6-4.98-5.42-4.81-2.83,.17-4.98,2.6-4.81,5.42h1.42c0-2.04,1.65-3.69,3.69-3.69s3.69,1.65,3.69,3.69h1.44Z" style="fill:#fff;"></path></g><path d="M463.13,279.34l-.53-1.53c-.28-.78-1.02-1.29-1.84-1.29h-3.34c-.84-.04-1.59,.49-1.84,1.29l-.53,1.53c-4.16,2.22-5.72,7.4-3.5,11.55s7.4,5.72,11.55,3.5c4.16-2.22,5.72-7.4,3.5-11.55-.8-1.49-2.01-2.7-3.5-3.5h.04Zm-4.04,13.2c-3.16,0-5.72-2.56-5.72-5.72s2.56-5.72,5.72-5.72c3.16,0,5.72,2.56,5.72,5.72,0,3.16-2.56,5.72-5.71,5.72h0Z" style="fill:#263238;"></path><path d="M463.13,279.34l-.53-1.53c-.28-.78-1.02-1.29-1.84-1.29h-3.34c-.84-.04-1.59,.49-1.84,1.29l-.53,1.53c-4.16,2.22-5.72,7.4-3.5,11.55s7.4,5.72,11.55,3.5c4.16-2.22,5.72-7.4,3.5-11.55-.8-1.49-2.01-2.7-3.5-3.5h.04Zm-4.04,13.2c-3.16,0-5.72-2.56-5.72-5.72s2.56-5.72,5.72-5.72c3.16,0,5.72,2.56,5.72,5.72,0,3.16-2.56,5.72-5.71,5.72h0Z" style="fill:#fff; isolation:isolate; opacity:.5;"></path><path d="M456.15,279.34l-.53-1.53c-.28-.78-1.02-1.29-1.84-1.29h-3.34c-.83,0-1.56,.51-1.84,1.29l-.52,1.53c-4.16,2.22-5.72,7.4-3.5,11.55,2.22,4.16,7.4,5.72,11.55,3.5,4.16-2.22,5.72-7.4,3.5-11.55-.8-1.49-2.01-2.7-3.5-3.5h.02Zm-4.07,13.2c-3.16,0-5.72-2.56-5.72-5.72s2.56-5.72,5.72-5.72c3.16,0,5.72,2.56,5.72,5.72s-2.56,5.72-5.72,5.72h0Z" style="fill:#263238;"></path><path d="M456.15,279.34l-.53-1.53c-.28-.78-1.02-1.29-1.84-1.29h-3.34c-.83,0-1.56,.51-1.84,1.29l-.52,1.53c-4.16,2.22-5.72,7.4-3.5,11.55,2.22,4.16,7.4,5.72,11.55,3.5,4.16-2.22,5.72-7.4,3.5-11.55-.8-1.49-2.01-2.7-3.5-3.5h.02Zm-4.07,13.2c-3.16,0-5.72-2.56-5.72-5.72s2.56-5.72,5.72-5.72c3.16,0,5.72,2.56,5.72,5.72s-2.56,5.72-5.72,5.72h0Z" style="fill:#fff; isolation:isolate; opacity:.7;"></path></g><g><g><rect x="406.08" y="245.03" width="5.79" height="62.19" rx="2.29" ry="2.29" transform="translate(8.86 -12.69) rotate(1.8)" style="fill:#263238;"></rect><rect x="396.98" y="253.33" width="13.38" height="4" rx="1.58" ry="1.58" style="fill:#263238;"></rect></g><g style="opacity:.3;"><rect x="406.08" y="245.03" width="5.79" height="62.19" rx="2.29" ry="2.29" transform="translate(8.86 -12.69) rotate(1.8)"></rect><rect x="396.98" y="253.33" width="13.38" height="4" rx="1.58" ry="1.58"></rect></g></g><polygon points="420.4 453.48 408.92 453.48 408.71 454.22 420.8 454.82 420.4 453.48" style="opacity:.3;"></polygon><path d="M465.92,453.44h-11.48c0,.49-.03,.66-.21,.78l12.09,.59-.4-1.37Z" style="opacity:.3;"></path></g></g><g id="freepik--Character_1--inject-6"><g><g><g><path d="M349.55,219.46c-.14,.34-15.2,20.07-15.2,20.07l-12.21-18s-10.59,11.82-10.18,11.95c.41,.13,15.99,26.72,25.07,21,9.08-5.71,18.06-31.57,18.06-31.57l-5.55-3.46Z" style="fill:#ffb573;"></path><g><path d="M364.08,208.15c-1.27,.19-2.75,4.1-2.75,4.1-.09-.36,2.73-7.07,1.9-7.59-.58-.37-1.4-.21-2.03,.78-.48,.75-2.94,6.08-3.03,6.34,0,0,1.66-4.43,2.34-6.58,.3-.95-.18-1.42-.42-1.46-.91-.16-1.89,1.78-1.89,1.78,0,0,.19-1.5-1.13-.79-1.31,.71-5.11,8.82-5.99,9.43l-2.59-2.93c-1.29,2.38-1.35,3.45-1.29,5.94,.06,2.49,2.37,4.54,2.37,4.54,0,0,1.6,1.33,4.24,1.71,2.63,.39,4.21-.81,5.76-3.09,1.26-1.85,2.79-5.87,3.83-7.78,1.14-2.09,1.94-4.6,.67-4.42Z" style="fill:#ffb573;"></path><path d="M356.02,210.71s-.03,0-.04,0c-.06-.02-.1-.1-.08-.16,.59-1.63,1.27-3.26,2.01-4.84,.03-.06,.1-.09,.17-.06,.06,.03,.09,.1,.06,.17-.74,1.57-1.41,3.19-2,4.82-.02,.05-.07,.08-.12,.08Z" style="opacity:.3;"></path><path d="M360.81,213.92s-.05,0-.08-.03c-1.78-1.4-4.02-2.3-6.31-2.52-.07,0-.12-.07-.11-.14,0-.07,.07-.12,.14-.11,2.34,.23,4.63,1.15,6.44,2.58,.05,.04,.06,.12,.02,.18-.02,.03-.06,.05-.1,.05Z" style="opacity:.3;"></path><path d="M353.26,220.07s-.03,0-.05,0c-.06-.03-.09-.1-.07-.16,.34-.81,.38-1.75,.11-2.59-.28-.84-.88-1.59-1.65-2.06-.06-.04-.08-.11-.04-.17,.04-.06,.11-.08,.17-.04,.82,.51,1.46,1.31,1.75,2.2,.29,.89,.25,1.9-.11,2.77-.02,.05-.07,.08-.12,.08Z" style="opacity:.3;"></path></g><path d="M334.35,239.53s-1.7,3.17-1.21,5.99c0,0-1-1.32-.93-3.6,.07-2.28,1.09-3.94,1.09-3.94l1.06,1.56Z" style="isolation:isolate; opacity:.2;"></path></g><path d="M311.95,209.26s5.42,.44,7.88,4.3c3.49,5.48,14.1,22.66,14.1,22.66l-16.05,10.83-5.93-37.79Z" style="fill:#00FF88;"></path><path d="M311.95,209.26s5.42,.44,7.88,4.3c3.49,5.48,14.1,22.66,14.1,22.66l-16.05,10.83-5.93-37.79Z" style="fill:#fff; opacity:.3;"></path><polygon points="342 196.36 357.96 227.98 379.61 216.37 362.7 186.22 342 196.36" style="fill:#00FF88;"></polygon><polygon points="342 196.36 357.96 227.98 379.61 216.37 362.7 186.22 342 196.36" style="fill:#fff; isolation:isolate; opacity:.8;"></polygon><rect x="344.14" y="197.19" width="29.15" height="21.28" transform="translate(380.93 -206.14) rotate(62.98)" style="fill:#263238;"></rect><path d="M348.5,211.24l3.44-5.49s1.36,.43,1.01,2.41-.95,4.82-.95,4.82c0,0,2.45,4.04,1.55,6.26s-1.43,2.57-1.43,2.57l-3.62-10.58Z" style="fill:#ffb573;"></path></g><g><path d="M277.91,459.32c-1.13-1.39-4.94-63.61-4.39-69.13,.54-5.52-.05-22.32-.05-22.32h18.25s-.81,19.7,0,27.26-7.01,65.11-7.01,65.11l-6.8-.92Z" style="fill:#ffb573;"></path><polygon points="277.39 459.25 275.32 429.98 288.59 429.98 285.09 459.46 277.39 459.25" style="fill:#00FF88;"></polygon><polygon points="277.39 459.25 275.32 429.98 288.59 429.98 285.09 459.46 277.39 459.25" style="fill:#fff; opacity:.7;"></polygon><g><path d="M271.42,466.32h15.57s.34-.7-.05-2.56c-.06-.29-.14-.61-.24-.96,0-.02,0-.03-.01-.05-.15-.52-.31-1.15-.49-1.83-.71-2.79-1.55-6.43-1.55-6.43,0,0-2.59-5.93-5.62-4.45-2.66,1.3-2.03,5.02-2.03,5.02,0,0-.26,2.18-2.28,4.11-1.25,1.19-2.49,2.11-3.08,3.59-.11,.28-.2,.57-.26,.89,0,.04-.01,.08-.02,.12-.12,.71-.12,1.55,.06,2.56Z" style="fill:#263238;"></path><path d="M286.94,463.75c.39,1.86,.05,2.56,.05,2.56h-15.57c-.18-1.01-.19-1.85-.06-2.56h15.58Z" style="fill:#e0e0e0;"></path><path d="M277.62,455.98c.88-.73,2.02-.64,2.81,.19,.21,.22,.54-.13,.32-.35-.98-1.03-2.39-1.08-3.46-.19-.23,.19,.09,.54,.32,.35h0Z" style="fill:#fff;"></path><path d="M277.18,457.53c.88-.73,2.02-.64,2.81,.19,.21,.22,.54-.13,.32-.35-.98-1.03-2.39-1.08-3.46-.19-.23,.19,.09,.54,.32,.35h0Z" style="fill:#fff;"></path><path d="M276.74,458.96c.88-.73,2.02-.64,2.81,.19,.21,.22,.54-.13,.32-.35-.98-1.03-2.39-1.08-3.46-.19-.23,.19,.09,.54,.32,.35h0Z" style="fill:#fff;"></path></g><polygon points="275.5 434.79 288.01 434.87 287.64 437.95 275.84 437.7 275.5 434.79" style="fill:#00FF88;"></polygon><polygon points="275.97 440.36 275.97 439.11 287.47 439.39 287.33 440.56 275.97 440.36" style="fill:#00FF88;"></polygon></g><g><path d="M316.09,356.07c0,.97,9.71,26.96,9.71,26.96,0,0,.61,22.1,2.12,31.03,.81,4.77,4.24,16.54,7.2,26.49,2.57,8.66,4.76,15.93,4.76,15.93l10.26-1.92s-5.58-50.41-5.58-60.16-8.45-30.68-8.45-30.68l-20.03-7.64Z" style="fill:#ffb573;"></path><polygon points="339.08 453.87 331.64 428.8 347.04 425.04 350.14 455.67 339.08 453.87" style="fill:#00FF88;"></polygon><polygon points="339.08 453.87 331.64 428.8 347.04 425.04 350.14 455.67 339.08 453.87" style="fill:#fff; opacity:.7;"></polygon><g><path d="M340.18,466.84l6.37-.05s1.28-.7,2.04-.61c.75,.09,3.38,.57,3.38,.57l16.9-.13c-.14-.71-.31-1.34-.51-1.9-.24-.68-.51-1.26-.81-1.75-1.06-1.71-2.49-2.31-4.05-2.4-2.37-.13-9.85-5.07-9.85-5.07,0,0-2.71-.93-2.88-3.82-.06-1.08-1.67-2.39-2.42-2.5-1.55-.21-2.4,.78-2.61,2.33l-.25,1.81-3.57-.53s-3.65-1.81-3.46-.03c.11,1.02,.75,5.55,1.16,9.14,.1,.84,.19,1.63,.26,2.33h0c.18,1.54,.3,2.6,.3,2.6Z" style="fill:#263238;"></path><path d="M368.87,466.62l-16.9,.13s-2.63-.48-3.38-.57c-.76-.09-2.04,.61-2.04,.61l-6.37,.05s-.12-1.06-.3-2.6l28.48,.48c.19,.56,.37,1.19,.51,1.9Z" style="fill:#e0e0e0;"></path><path d="M357.37,457.32c-.08-.08-.2-.08-.29-.02-.42,.28-.77,.68-1,1.18-.12,.26,.26,.51,.38,.25,.21-.44,.51-.79,.88-1.04,.12-.08,.14-.25,.03-.36h0Z" style="fill:#fff;"></path><path d="M356.02,456.54c-.08-.08-.2-.08-.29-.02-.42,.28-.77,.68-1,1.18-.12,.26,.26,.51,.38,.25,.21-.44,.51-.79,.88-1.04,.12-.08,.14-.25,.03-.36h0Z" style="fill:#fff;"></path><path d="M354.63,455.81c-.08-.08-.2-.08-.29-.02-.42,.28-.77,.68-1,1.18-.12,.26,.26,.51,.38,.25,.21-.44,.51-.79,.88-1.04,.12-.08,.14-.25,.03-.36h0Z" style="fill:#fff;"></path></g><polygon points="332.86 433.21 347.46 429.21 347.79 432.4 333.9 436.44 332.86 433.21" style="fill:#00FF88;"></polygon><polygon points="334.14 437.52 347.89 433.43 348.01 434.59 334.57 438.93 334.14 437.52" style="fill:#00FF88;"></polygon></g><g><path d="M341.84,368.41c-1.22-12.48-15.59-78.76-15.59-78.76l-20.46,.66-32.36,1.41s-4.52,28.02-3.41,46.87l.59,49.03,24.45,1.7,.72-15.71c1.14-10.56,3.74-38.76,4.55-47.61,.34-1.96,.67-3.93,.99-5.9,3.21,9.59,15.78,47.33,16.91,53.21,1.3,6.75,3.26,14.9,3.26,14.9l23.06-3.57s-1.51-3.77-2.73-16.25Z" style="fill:#263238;"></path><g style="opacity:.5;"><path d="M317.86,299.56c1.9,6.69,6.98,12.06,13.25,14.01,.34,.11,.19,.67-.15,.57-6.46-2.01-11.68-7.54-13.64-14.42-.1-.36,.43-.52,.53-.16h0Z"></path><path d="M300.79,299.56c.37,5.85,.73,11.71,1.1,17.56,.02,.38,.56,.38,.55,0-.19-3-.38-6.01-.56-9.02,1.35,1.11,2.93-.24,3.37-1.73,.72-2.42,.45-5.28-.11-7.7-.09-.37-.62-.21-.53,.15,.4,1.7,.56,3.43,.45,5.18-.05,.89-.13,1.91-.52,2.72-.43,.91-1.53,1.67-2.4,.85-.1-.08-.2-.09-.29-.05-.17-2.65-.33-5.31-.5-7.96-.02-.38-.56-.38-.55,0Z"></path><path d="M284.71,300.56c.08,7.75-5.5,14.25-12.71,14.86-.35,.03-.34-.55,0-.58,6.92-.58,12.25-6.86,12.17-14.28,0-.37,.54-.37,.54,0h0Z"></path></g></g><polygon points="270.61 387.63 270.61 381.4 295.35 383.04 295.06 389.33 270.61 387.63" style="fill:#fff; isolation:isolate; opacity:.7;"></polygon><polygon points="321.51 388.26 320.12 382.26 343.24 379.04 344.56 384.66 321.51 388.26" style="fill:#fff; isolation:isolate; opacity:.7;"></polygon><g><g><path d="M257.33,224.88c-1.58,7.22-2.87,14.4-3.92,21.71-.49,3.65-1.01,7.31-1.37,11.04-.18,1.85-.4,3.74-.49,5.64-.08,1.9-.21,3.83-.19,5.98,0,.52,.02,1.1,.06,1.72,.06,.26,.04,.65,.08,.99l.06,.54,.08,.38c.21,.98,.32,1.95,.49,2.86,.4,1.85,.72,3.65,1.1,5.45,.78,3.6,1.56,7.18,2.34,10.74,1.65,7.12,3.44,14.21,5.36,21.27l7.31-1.3c-.59-7.25-1.29-14.5-2.09-21.73l-1.14-10.8c-.18-1.8-.35-3.57-.51-5.34-.08-.88-.16-1.72-.21-2.54l-.06-.27-.03-.15,.02-.36c.02-.31,.03-.63,.08-1.02,.14-1.49,.4-3.2,.66-4.89,.26-1.69,.56-3.44,.89-5.18,.65-3.48,1.31-7,2.01-10.52,1.38-7.03-1.63-10.51-.38-17.55l-10.17-6.66Z" style="fill:#ffb573;"></path><path d="M267,310.83l-6.32-.7c-1.15,5.61-1.58,11.35-1.27,17.07,.23,3.72,6.23,7.91,6.23,7.91,0,0,2.1,4.41,3.28,3.05,1.18-1.36-2.02-7.44-2.15-8.85-.38-4.38-.8-8.8-.44-9.39,.36-.59,.45,5.49,2.32,6.79s.39-6.26,1.04-8.84c.66-2.58-1.21-6.74-2.69-7.03Z" style="fill:#ffb573;"></path><path d="M265.06,334.54c-1.62-2.51-2.52-5.43-2.59-8.42-.05-.23,.37-.3,.37-.08,.06,2.93,.93,5.78,2.51,8.25,.13,.2-.17,.43-.3,.22v.02Z" style="isolation:isolate; opacity:.2;"></path><path d="M261.7,327.71c.1,1.51,.54,2.98,1.29,4.29,.13,.2-.23,.35-.35,.14-.77-1.34-1.22-2.84-1.32-4.38-.05-.23,.36-.29,.37-.08v.03Z" style="isolation:isolate; opacity:.2;"></path></g><path d="M267.73,210.58s-10.32-.85-12.35,11.24c-2.02,12.1-5.34,32.65-5.34,32.65l20,1.74c1.01-.74-2.31-45.63-2.31-45.63Z" style="fill:#00FF88;"></path><path d="M267.73,210.58s-10.32-.85-12.35,11.24c-2.02,12.1-5.34,32.65-5.34,32.65l20,1.74c1.01-.74-2.31-45.63-2.31-45.63Z" style="fill:#fff; opacity:.3;"></path></g><g><path d="M328.92,296.66l-10.29-43.76-6.68-43.64-14.86-.14-12.93-.32-16.42,1.78-5.59,21.02s4.59,30.85,4.73,32.45c.17,1.96,3.36,37.23,3.36,37.23,22.99,1.51,59.31-2.95,58.68-4.62Z" style="fill:#00FF88;"></path><g style="opacity:.3;"><path d="M328.92,296.66l-10.29-43.76-6.68-43.64-14.86-.14-12.93-.32-16.42,1.78-5.59,21.02s4.59,30.85,4.73,32.45c.17,1.96,3.36,37.23,3.36,37.23,22.99,1.51,59.31-2.95,58.68-4.62Z" style="fill:#fff;"></path></g><path d="M281.99,284.46c-.1,0-.2-.06-.23-.16-.05-.13,.02-.27,.15-.32,10.24-3.79,19.16-10.92,25.11-20.07,.08-.12,.23-.15,.35-.07,.12,.08,.15,.23,.07,.35-6.01,9.24-15.02,16.44-25.36,20.26-.03,.01-.06,.02-.09,.02Z" style="opacity:.2;"></path><polygon points="317.61 247.5 315.46 232.25 320.81 245.55 317.61 247.5" style="isolation:isolate; opacity:.2;"></polygon><polygon points="266.56 255.91 270.04 256.21 269.84 229.77 273.44 262.18 266.75 263.12 266.09 258.42 266.56 255.91" style="isolation:isolate; opacity:.2;"></polygon></g><g><g><path d="M282.15,209.06s.83-5.97-2.66-16.32c0-.01,.54-.28,.54-.29-.48-1.45-.99-2.78-1.46-3.94-.01-.03-.01-.04-.01-.04l14.72,8.24c-.19,3.37,1.29,9.79,2.13,12.5,0,0,3.12,5.95-3.46,6.45-4.81,.37-9.8-6.59-9.8-6.59Z" style="fill:#ffb573;"></path><path d="M293.73,201.4l-8.33-1.5c.86,2.53,3.26,5.48,9.02,5.48,0,0-.7-2.85-.68-3.97Z" style="opacity:.2;"></path></g><g><path d="M302.11,171.49c1.83,3.24,2.75,10.51-2.6,9.22-5.35-1.29-.55-14.8,2.6-9.22Z" style="fill:#263238;"></path><path d="M278.14,181.5c1.36,9.05,1.95,14.18,6.96,18.4,7.54,6.35,18.17,1.31,19.54-7.99,1.23-8.37-1.2-21.76-10.44-24.51-9.1-2.71-17.43,5.05-16.06,14.1Z" style="fill:#ffb573;"></path><path d="M275.3,169.63c.81-5.12,7.05-8.46,10.78-6.21,.56,.34-3.29,2.05-2.85,1.85l.38,7.41c-.55-.07-1.55,.65-1.96,2.38,0,0,2.19,9.51-1.41,13.9-10.24-3.67-11.51-16.62-4.95-19.33Z" style="fill:#263238;"></path><path d="M275.22,189.4c.93,2.28,2.84,3.9,4.72,4.64,2.83,1.11,4.58-1.36,4.07-4.21-.46-2.56-2.49-6.22-5.47-6.11-2.93,.11-4.4,3.08-3.33,5.68Z" style="fill:#ffb573;"></path><path d="M291.39,182.98c.08,.93,.64,1.64,1.25,1.58,.61-.06,1.04-.86,.95-1.79-.08-.93-.64-1.64-1.25-1.58-.61,.06-1.04,.86-.95,1.79Z" style="fill:#263238;"></path><path d="M300.54,182.35c.08,.93,.64,1.64,1.25,1.58,.61-.06,1.04-.86,.95-1.79-.08-.93-.64-1.64-1.25-1.58-.61,.06-1.04,.86-.95,1.79Z" style="fill:#263238;"></path><path d="M297.52,182.1s3.36,4.37,4.47,6.17c-1.19,1.28-3.47,.94-3.47,.94l-.99-7.11Z" style="fill:#d58745;"></path><path d="M292.38,177.48c-.15-.01-.31,.06-.4,.2-1.09,1.63-2.7,1.65-2.71,1.65-.24,0-.44,.19-.44,.44,0,.24,.19,.44,.43,.44,.09,0,2.1-.02,3.45-2.04,.13-.2,.08-.47-.12-.61-.07-.04-.14-.07-.21-.07Z" style="fill:#263238;"></path><path d="M300.7,176.06c-.08,0-.16,.04-.23,.1-.19,.16-.21,.43-.06,.62,1.54,1.86,3.53,1.63,3.62,1.63,.24-.03,.41-.25,.39-.49-.03-.24-.24-.41-.48-.38-.08,.01-1.62,.17-2.86-1.32-.1-.12-.24-.17-.38-.15Z" style="fill:#263238;"></path></g><path d="M308.4,167.02c-.44-2.33-2.96-4.16-5.25-3.55,.74-1.52,.08-3.56-1.41-4.36-1.49-.8-3.56-.21-4.41,1.24-.08-1.41-1.6-2.46-3.01-2.35s-2.63,1.13-3.34,2.35c-.44,.75-.76,1.62-1.46,2.13-1.1,.8-2.62,.39-3.97,.28-2.28-.17-4.62,.69-6.24,2.31s-2.48,3.96-2.31,6.24c-1.26,.34-1.89,1.36-2.7,2.38l6.98,1.12c1.96-3.65,7.23-.83,9.88,.18,1.9,.72,3.77,.78,5.21,.72s2.1-1.11,2.12-2.55c2.21,.85,4.81,.91,6.89-.23,2.08-1.14,3.48-3.59,3.04-5.92Z" style="fill:#263238;"></path><path d="M275.71,170.07s-.1-.01-.14-.04c-1.36-.93-2.97-1.52-4.2-1.54-.14,0-.25-.12-.25-.25s.14-.26,.25-.25c1.35,.02,3.02,.63,4.47,1.63,.11,.08,.14,.23,.07,.35-.05,.07-.13,.11-.21,.11Z" style="fill:#263238;"></path><path d="M275.54,169.98c-.08,0-.16-.04-.21-.11-1.03-1.53-1.47-3.45-1.2-5.27,.02-.14,.15-.23,.28-.21,.14,.02,.23,.15,.21,.28-.25,1.7,.16,3.5,1.12,4.92,.08,.11,.05,.27-.07,.35-.04,.03-.09,.04-.14,.04Z" style="fill:#263238;"></path><path d="M297.67,195.06c.34-1.09,.3-2.32-.4-3.22-.7-.9-1.86-1.4-3-1.37-1.14,.03-2.24,.57-3.03,1.39-.39,.41-.73,.93-.7,1.5,.03,.65,.55,1.2,1.14,1.46,.6,.26,1.27,.3,1.92,.32,.65,.02,1.32,.04,1.93,.27,.29,.11,.57,.28,.88,.3,0,0,1.02,.08,1.25-.65Z" style="fill:#263238;"></path><path d="M292.19,191.11c.27,.06,4.53,.97,4.74,.9,.18-.06,.15-.34,.13-.43-.11-.12-.22-.24-.35-.35-.03-.03-.07-.05-.11-.08-.66-.49-1.5-.75-2.33-.73-.75,.02-1.45,.29-2.09,.69Z" style="fill:#fff;"></path><path d="M295.12,194.01c-1.6-.76-4.41-.14-4.44-.14,.19,.42,.58,.76,1.01,.95,.6,.26,1.27,.3,1.92,.32,.65,.02,1.32,.04,1.93,.27,.29,.11,.57,.28,.88,.3,0,0,.25,.02,.52-.05-.2-.4-.7-1.12-1.82-1.65Z" style="fill:#de5753;"></path><path d="M281.47,189.31c-.12,0-.22-.08-.24-.2-.15-.73-.49-1.42-.99-1.98-.32-.36-.84-.82-1.5-.92-.59-.09-1.19,.17-1.44,.62-.07,.12-.22,.16-.34,.1-.12-.07-.16-.22-.1-.34,.35-.63,1.15-.99,1.96-.87,.81,.13,1.43,.66,1.8,1.08,.55,.63,.93,1.39,1.1,2.21,.03,.14-.06,.27-.2,.29-.02,0-.03,0-.05,0Z" style="opacity:.2;"></path></g></g></g></svg>
